<?xml version="1.0" encoding="UTF-8"?>
<!-- wave-generated-sha256: 803fe0bee954c289 -->
<svg xmlns="http://www.w3.org/2000/svg" xmlns:xlink="http://www.w3.org/1999/xlink" width="281.887pt" height="150.187pt" viewBox="0 0 281.887 150.187">
<defs>
<g>
<g id="glyph-0-0">
<path d="M 3.90625 -1.53125 L 3.609375 -1.53125 C 3.328125 -0.78125 3.125 -0.640625 2.5 -0.640625 L 1.125 -0.640625 L 1.125 -0.671875 L 4.25 -3.921875 L 4.296875 -4.171875 L 1.03125 -4.171875 L 0.703125 -2.796875 L 0.984375 -2.796875 C 1.15625 -3.390625 1.265625 -3.546875 1.828125 -3.546875 L 3.28125 -3.546875 L 3.28125 -3.53125 L 0.15625 -0.265625 L 0.109375 0 L 3.5 0 Z M 3.90625 -1.53125 "/>
</g>
<g id="glyph-0-1">
<path d="M 5.875 -2.921875 L 5.875 -3.53125 L 0.546875 -3.53125 L 0.546875 -2.921875 Z M 5.875 -1.09375 L 5.875 -1.6875 L 0.546875 -1.6875 L 0.546875 -1.09375 Z M 5.875 -1.09375 "/>
</g>
<g id="glyph-0-2">
<path d="M 3.59375 -2.96875 C 3.515625 -3.46875 3.34375 -4.28125 2.484375 -4.28125 C 1.25 -4.28125 0.375 -3.171875 0.375 -1.53125 C 0.375 -0.5 0.671875 0.125 1.40625 0.125 C 2.046875 0.125 2.65625 -0.578125 3.171875 -1.421875 L 3.25 -1.421875 C 3.21875 -1.125 3.171875 -0.875 3.171875 -0.65625 C 3.171875 -0.21875 3.328125 0.09375 3.75 0.09375 C 4.46875 0.09375 4.8125 -0.546875 4.9375 -0.78125 L 4.796875 -0.921875 C 4.625 -0.734375 4.453125 -0.578125 4.1875 -0.578125 C 3.71875 -0.578125 3.71875 -1.4375 3.71875 -2.078125 C 3.71875 -2.109375 3.71875 -2.15625 3.71875 -2.171875 C 3.71875 -2.21875 4.15625 -2.8125 4.828125 -3.75 C 4.890625 -3.84375 5.03125 -4 5.09375 -4.078125 L 5.078125 -4.21875 L 4.34375 -4.1875 C 4.171875 -3.96875 3.859375 -3.46875 3.65625 -2.96875 Z M 1.59375 -0.65625 C 1.1875 -0.65625 0.78125 -0.953125 0.78125 -1.734375 C 0.78125 -2.921875 1.46875 -3.53125 2.4375 -3.53125 C 3 -3.53125 3.296875 -3.28125 3.296875 -2.734375 C 3.296875 -2.59375 3.296875 -2.484375 3.28125 -2.421875 C 3.21875 -1.796875 2.5 -0.65625 1.59375 -0.65625 Z M 1.59375 -0.65625 "/>
</g>
<g id="glyph-0-3">
<path d="M 2.8125 -2.65625 L 2.78125 -2.65625 L 2.671875 -3.109375 C 2.546875 -3.59375 2.375 -3.984375 2.171875 -4.234375 L 2.03125 -4.234375 L 0.796875 -4.09375 L 0.796875 -3.828125 C 0.796875 -3.828125 0.921875 -3.859375 1.078125 -3.859375 C 1.65625 -3.859375 1.8125 -3.625 2.046875 -2.875 L 2.296875 -2.0625 L 1.65625 -1.125 C 1.3125 -0.625 1.15625 -0.609375 1.109375 -0.609375 C 0.96875 -0.609375 0.75 -0.734375 0.546875 -0.734375 C 0.34375 -0.734375 0.203125 -0.53125 0.203125 -0.359375 C 0.203125 -0.140625 0.34375 0.078125 0.71875 0.078125 C 1.265625 0.078125 1.546875 -0.34375 1.84375 -0.796875 L 2.40625 -1.734375 L 2.4375 -1.734375 L 2.671875 -0.828125 C 2.796875 -0.25 2.984375 0.09375 3.40625 0.09375 C 4 0.09375 4.375 -0.515625 4.640625 -0.90625 L 4.453125 -1.046875 C 4.21875 -0.734375 4.046875 -0.546875 3.8125 -0.546875 C 3.53125 -0.546875 3.359375 -0.890625 3.109375 -1.703125 L 2.921875 -2.3125 L 3.46875 -3.171875 C 3.609375 -3.421875 3.734375 -3.546875 3.9375 -3.546875 C 4.0625 -3.546875 4.265625 -3.46875 4.40625 -3.46875 C 4.640625 -3.46875 4.8125 -3.671875 4.8125 -3.875 C 4.8125 -4.125 4.703125 -4.28125 4.375 -4.28125 C 3.84375 -4.28125 3.484375 -3.84375 3.25 -3.40625 Z M 2.8125 -2.65625 "/>
</g>
<g id="glyph-0-4">
<path d="M -0.03125 -6.40625 L -1.296875 -7.515625 L -1.453125 -7.34375 L -1.140625 -7.015625 C -1 -6.875 -0.90625 -6.796875 -0.90625 -6.671875 C -0.90625 -6.578125 -1 -6.5625 -1.140625 -6.5625 L -3.90625 -6.5625 L -3.90625 -6.140625 L -1.140625 -6.140625 C -1 -6.140625 -0.90625 -6.125 -0.90625 -6.015625 C -0.90625 -5.890625 -1 -5.8125 -1.140625 -5.671875 L -1.453125 -5.359375 L -1.296875 -5.171875 L -0.03125 -6.296875 Z M -0.03125 -6.40625 "/>
</g>
<g id="glyph-0-5">
<path d="M 2.28125 -6.296875 L 2.09375 -6.296875 L 0.859375 -6.1875 L 0.859375 -5.953125 C 0.859375 -5.953125 1.03125 -5.984375 1.140625 -5.984375 C 1.359375 -5.984375 1.453125 -5.890625 1.453125 -5.6875 C 1.453125 -5.578125 1.421875 -5.421875 1.421875 -5.421875 L 0.359375 0 L 1.09375 0 L 1.40625 -1.640625 L 1.921875 -2.09375 L 2.546875 -0.609375 C 2.671875 -0.28125 2.84375 0.09375 3.296875 0.09375 C 3.984375 0.09375 4.4375 -0.734375 4.515625 -0.90625 L 4.34375 -1.03125 C 4.140625 -0.765625 3.9375 -0.515625 3.625 -0.515625 C 3.359375 -0.515625 3.28125 -0.703125 3.15625 -1 L 2.484375 -2.53125 L 3.484375 -3.40625 C 3.78125 -3.671875 4.046875 -3.921875 4.65625 -3.9375 L 4.6875 -4.171875 L 2.765625 -4.171875 L 2.734375 -3.9375 C 2.953125 -3.9375 3.140625 -3.90625 3.140625 -3.71875 C 3.140625 -3.59375 3.046875 -3.484375 2.921875 -3.375 L 1.53125 -2.125 L 1.484375 -2.125 Z M 2.28125 -6.296875 "/>
</g>
<g id="glyph-0-6">
<path d="M 4.4375 -4.234375 C 4.4375 -5.515625 4.046875 -6.390625 3.1875 -6.390625 C 1.734375 -6.390625 0.484375 -4.296875 0.484375 -1.859375 C 0.484375 -0.46875 1.078125 0.125 1.875 0.125 C 3.265625 0.125 4.4375 -1.515625 4.4375 -4.234375 Z M 2.046875 -0.65625 C 1.578125 -0.65625 0.96875 -0.96875 0.96875 -2.234375 C 0.96875 -2.46875 0.984375 -2.796875 1.015625 -3.015625 L 3.921875 -3.015625 C 3.671875 -1.328125 2.90625 -0.65625 2.046875 -0.65625 Z M 3.015625 -5.625 C 3.71875 -5.625 4 -4.859375 4 -4.015625 C 4 -3.859375 3.984375 -3.65625 3.984375 -3.484375 L 1.109375 -3.484375 C 1.421875 -4.828125 2.25 -5.625 3.015625 -5.625 Z M 3.015625 -5.625 "/>
</g>
<g id="glyph-1-0">
<path d="M 4.953125 0 L 4.953125 -0.25 C 4.359375 -0.25 4.296875 -0.40625 4.296875 -0.90625 L 4.296875 -2.734375 C 4.296875 -3.765625 3.90625 -4.328125 3.09375 -4.328125 C 2.53125 -4.328125 2.140625 -4 1.65625 -3.578125 L 1.625 -3.578125 L 1.625 -4.296875 L 1.421875 -4.296875 L 0.296875 -4.046875 L 0.296875 -3.78125 C 0.296875 -3.78125 0.390625 -3.796875 0.53125 -3.796875 C 0.78125 -3.796875 0.90625 -3.734375 0.90625 -3.40625 L 0.90625 -0.90625 C 0.90625 -0.40625 0.890625 -0.25 0.28125 -0.25 L 0.28125 0 L 2.328125 0 L 2.328125 -0.25 C 1.6875 -0.25 1.65625 -0.40625 1.65625 -0.90625 L 1.65625 -3.1875 C 1.921875 -3.4375 2.25 -3.75 2.734375 -3.75 C 3.125 -3.75 3.546875 -3.59375 3.546875 -2.515625 L 3.546875 -0.90625 C 3.546875 -0.40625 3.53125 -0.25 2.890625 -0.25 L 2.890625 0 Z M 4.953125 0 "/>
</g>
<g id="glyph-1-1">
<path d="M 2.296875 0.09375 C 3.46875 0.09375 4.28125 -0.703125 4.28125 -2.1875 C 4.28125 -3.515625 3.53125 -4.328125 2.296875 -4.328125 C 1.09375 -4.328125 0.296875 -3.453125 0.296875 -2.15625 C 0.296875 -0.71875 1.046875 0.09375 2.296875 0.09375 Z M 2.34375 -0.265625 C 1.5625 -0.265625 1.140625 -0.859375 1.140625 -2.28125 C 1.140625 -3.421875 1.59375 -3.984375 2.265625 -3.984375 C 3.0625 -3.984375 3.46875 -3.25 3.46875 -2.15625 C 3.46875 -0.703125 3.0625 -0.265625 2.34375 -0.265625 Z M 2.34375 -0.265625 "/>
</g>
<g id="glyph-1-2">
<path d="M 2.484375 0 L 2.484375 -0.265625 C 1.8125 -0.265625 1.65625 -0.34375 1.65625 -0.90625 L 1.65625 -2.9375 C 1.859375 -3.296875 2.15625 -3.671875 2.359375 -3.671875 C 2.46875 -3.671875 2.640625 -3.375 2.9375 -3.375 C 3.125 -3.375 3.328125 -3.515625 3.328125 -3.859375 C 3.328125 -4.15625 3.15625 -4.359375 2.8125 -4.359375 C 2.375 -4.359375 2.109375 -4.046875 1.65625 -3.375 L 1.625 -3.375 L 1.625 -4.296875 L 1.421875 -4.296875 L 0.3125 -4.03125 L 0.3125 -3.78125 C 0.3125 -3.78125 0.40625 -3.796875 0.59375 -3.796875 C 0.90625 -3.796875 0.90625 -3.640625 0.90625 -3.3125 L 0.90625 -0.859375 C 0.90625 -0.359375 0.84375 -0.265625 0.265625 -0.265625 L 0.265625 0 Z M 2.484375 0 "/>
</g>
<g id="glyph-1-3">
<path d="M 4.90625 0 L 4.90625 -0.265625 C 4.265625 -0.265625 4.21875 -0.421875 4.21875 -1.03125 L 4.21875 -3.203125 C 4.515625 -3.453125 4.875 -3.75 5.25 -3.75 C 5.671875 -3.75 6.015625 -3.5625 6.015625 -2.75 L 6.015625 -1.03125 C 6.015625 -0.484375 5.984375 -0.265625 5.375 -0.265625 L 5.375 0 L 7.390625 0 L 7.390625 -0.265625 C 6.78125 -0.265625 6.75 -0.46875 6.75 -1.03125 L 6.75 -2.859375 C 6.75 -3.9375 6.296875 -4.328125 5.609375 -4.328125 C 5.125 -4.328125 4.671875 -4.0625 4.1875 -3.59375 L 4.15625 -3.59375 C 3.96875 -4.015625 3.671875 -4.328125 3.15625 -4.328125 C 2.546875 -4.328125 2.140625 -4 1.65625 -3.578125 L 1.625 -3.578125 L 1.625 -4.296875 L 1.40625 -4.296875 L 0.296875 -4.046875 L 0.296875 -3.78125 C 0.296875 -3.78125 0.40625 -3.796875 0.53125 -3.796875 C 0.78125 -3.796875 0.90625 -3.71875 0.90625 -3.40625 L 0.90625 -0.90625 C 0.90625 -0.359375 0.84375 -0.265625 0.28125 -0.265625 L 0.28125 0 L 2.3125 0 L 2.3125 -0.265625 C 1.765625 -0.265625 1.65625 -0.359375 1.65625 -0.859375 L 1.65625 -3.1875 C 1.90625 -3.421875 2.296875 -3.75 2.765625 -3.75 C 3.171875 -3.75 3.484375 -3.5625 3.484375 -2.796875 L 3.484375 -1.03125 C 3.484375 -0.40625 3.421875 -0.265625 2.796875 -0.265625 L 2.796875 0 Z M 4.90625 0 "/>
</g>
<g id="glyph-1-4">
<path d="M 1.40625 0.0625 C 1.96875 0.0625 2.296875 -0.1875 2.71875 -0.546875 L 2.75 -0.546875 C 2.796875 -0.15625 2.890625 0.046875 3.28125 0.046875 C 3.734375 0.046875 3.953125 -0.140625 4.25 -0.578125 L 4.109375 -0.71875 C 3.984375 -0.578125 3.859375 -0.484375 3.6875 -0.484375 C 3.5 -0.484375 3.421875 -0.5625 3.421875 -0.921875 L 3.421875 -2.953125 C 3.421875 -3.875 3.0625 -4.328125 2.09375 -4.328125 C 1.109375 -4.328125 0.515625 -3.84375 0.515625 -3.34375 C 0.515625 -3.046875 0.71875 -2.921875 0.890625 -2.921875 C 1.140625 -2.921875 1.28125 -3.046875 1.28125 -3.328125 C 1.28125 -3.859375 1.375 -4.046875 1.875 -4.046875 C 2.421875 -4.046875 2.6875 -3.75 2.6875 -2.984375 L 2.6875 -2.59375 C 1.921875 -2.34375 0.34375 -2.109375 0.34375 -0.9375 C 0.34375 -0.359375 0.71875 0.0625 1.40625 0.0625 Z M 2.6875 -0.828125 C 2.375 -0.578125 2.0625 -0.421875 1.765625 -0.421875 C 1.390625 -0.421875 1.125 -0.703125 1.125 -1.15625 C 1.125 -1.84375 1.875 -2.09375 2.6875 -2.296875 Z M 2.6875 -0.828125 "/>
</g>
<g id="glyph-1-5">
<path d="M 2.3125 0 L 2.3125 -0.265625 C 1.671875 -0.265625 1.625 -0.390625 1.625 -0.90625 L 1.625 -6.296875 L 1.40625 -6.296875 L 0.234375 -5.984375 L 0.234375 -5.75 C 0.234375 -5.75 0.359375 -5.765625 0.515625 -5.765625 C 0.734375 -5.765625 0.890625 -5.75 0.890625 -5.375 L 0.890625 -0.90625 C 0.890625 -0.40625 0.859375 -0.265625 0.265625 -0.265625 L 0.265625 0 Z M 2.3125 0 "/>
</g>
<g id="glyph-2-0">
<path d="M 1.703125 -3.28125 L 1.40625 -3.28125 L 0.515625 -3.203125 L 0.515625 -2.96875 C 0.515625 -2.96875 0.625 -2.984375 0.71875 -2.984375 C 0.90625 -2.984375 0.96875 -2.859375 0.96875 -2.75 C 0.96875 -2.625 0.953125 -2.515625 0.953125 -2.515625 L 0.625 -0.90625 C 0.53125 -0.515625 0.515625 -0.375 0.515625 -0.28125 C 0.515625 -0.03125 0.6875 0.0625 1 0.0625 C 1.53125 0.0625 1.765625 -0.28125 2 -0.609375 L 1.828125 -0.75 C 1.75 -0.671875 1.5625 -0.40625 1.328125 -0.40625 C 1.25 -0.40625 1.1875 -0.4375 1.1875 -0.546875 C 1.1875 -0.671875 1.25 -0.953125 1.25 -0.953125 Z M 1.828125 -4.15625 C 1.828125 -4.40625 1.640625 -4.578125 1.40625 -4.578125 C 1.171875 -4.578125 1 -4.40625 1 -4.15625 C 1 -3.890625 1.171875 -3.734375 1.40625 -3.734375 C 1.640625 -3.734375 1.828125 -3.890625 1.828125 -4.15625 Z M 1.828125 -4.15625 "/>
</g>
<g id="glyph-2-1">
<path d="M 1.421875 -1.90625 L 1.75 -3.28125 L 1.46875 -3.28125 L 0.578125 -3.203125 L 0.578125 -2.96875 C 0.578125 -2.96875 0.6875 -2.984375 0.765625 -2.984375 C 0.96875 -2.984375 1.015625 -2.875 1.015625 -2.734375 C 1.015625 -2.65625 0.96875 -2.5 0.953125 -2.375 L 0.453125 0 L 1.09375 0 L 1.296875 -0.953125 C 1.40625 -1.21875 2.046875 -2.65625 2.40625 -2.65625 C 2.421875 -2.65625 2.53125 -2.359375 2.78125 -2.359375 C 2.96875 -2.359375 3.125 -2.546875 3.125 -2.84375 C 3.125 -3.109375 2.953125 -3.28125 2.6875 -3.28125 C 2.109375 -3.28125 1.765625 -2.359375 1.515625 -1.90625 Z M 1.421875 -1.90625 "/>
</g>
</g>
</defs>
<path fill="none" stroke-width="0.54796" stroke-linecap="round" stroke-linejoin="round" stroke="rgb(0%, 0%, 0%)" stroke-opacity="1" stroke-miterlimit="10" d="M 14.171779 22.111983 L 244.344648 22.111983 " transform="matrix(0.994616, 0, 0, -0.994616, -3.509539, 143.422617)"/>
<path fill="none" stroke-width="1.1457" stroke-linecap="round" stroke-linejoin="round" stroke="rgb(0%, 0%, 0%)" stroke-opacity="1" stroke-miterlimit="10" d="M 14.521317 1.929098 L 243.433492 42.290941 " transform="matrix(0.994616, 0, 0, -0.994616, -3.509539, 143.422617)"/>
<path fill="none" stroke-width="0.39851" stroke-linecap="round" stroke-linejoin="round" stroke="rgb(0%, 0%, 0%)" stroke-opacity="1" stroke-miterlimit="10" d="M 15.079008 -0.808297 L 242.875802 39.357177 " transform="matrix(0.994616, 0, 0, -0.994616, -3.509539, 143.422617)"/>
<g fill="rgb(0%, 0%, 0%)" fill-opacity="1">
<use xlink:href="#glyph-0-0" x="244.332828" y="99.658523"/>
</g>
<g fill="rgb(0%, 0%, 0%)" fill-opacity="1">
<use xlink:href="#glyph-0-1" x="251.288949" y="99.658523"/>
</g>
<g fill="rgb(0%, 0%, 0%)" fill-opacity="1">
<use xlink:href="#glyph-0-2" x="260.189217" y="99.658523"/>
<use xlink:href="#glyph-0-3" x="265.406307" y="99.658523"/>
</g>
<path fill="none" stroke-width="0.57784" stroke-linecap="round" stroke-linejoin="round" stroke="rgb(0%, 0%, 0%)" stroke-opacity="1" stroke-dasharray="2.9888 2.9888" stroke-miterlimit="10" d="M 128.977405 22.111983 L 111.00957 124.004332 " transform="matrix(0.994616, 0, 0, -0.994616, -3.509539, 143.422617)"/>
<g fill="rgb(0%, 0%, 0%)" fill-opacity="1">
<use xlink:href="#glyph-1-0" x="84.909824" y="14.55322"/>
<use xlink:href="#glyph-1-1" x="90.046652" y="14.55322"/>
<use xlink:href="#glyph-1-2" x="94.630558" y="14.55322"/>
<use xlink:href="#glyph-1-3" x="98.019437" y="14.55322"/>
<use xlink:href="#glyph-1-4" x="105.617662" y="14.55322"/>
<use xlink:href="#glyph-1-5" x="109.898352" y="14.55322"/>
</g>
<path fill="none" stroke-width="0.7771" stroke-linecap="round" stroke-linejoin="round" stroke="rgb(0%, 0%, 0%)" stroke-opacity="1" stroke-miterlimit="10" d="M 47.260086 106.731647 L 127.198295 23.950004 " transform="matrix(0.994616, 0, 0, -0.994616, -3.509539, 143.422617)"/>
<path fill-rule="nonzero" fill="rgb(0%, 0%, 0%)" fill-opacity="1" d="M 124.773438 121.429688 L 123.40625 117.085938 L 123.003906 119.601562 L 120.476562 119.914062 "/>
<path fill="none" stroke-width="0.7771" stroke-linecap="round" stroke-linejoin="round" stroke="rgb(0%, 0%, 0%)" stroke-opacity="1" stroke-miterlimit="10" d="M 128.977405 22.111983 L 175.784105 127.236579 " transform="matrix(0.994616, 0, 0, -0.994616, -3.509539, 143.422617)"/>
<path fill-rule="nonzero" fill="rgb(0%, 0%, 0%)" fill-opacity="1" d="M 172.363281 14.542969 L 168.84375 17.4375 L 171.328125 16.871094 L 172.566406 19.09375 "/>
<g fill="rgb(0%, 0%, 0%)" fill-opacity="1">
<use xlink:href="#glyph-0-4" x="35.458517" y="41.874324"/>
</g>
<g fill="rgb(0%, 0%, 0%)" fill-opacity="1">
<use xlink:href="#glyph-0-5" x="30.285519" y="43.881459"/>
</g>
<g fill="rgb(0%, 0%, 0%)" fill-opacity="1">
<use xlink:href="#glyph-2-0" x="35.038789" y="45.75432"/>
</g>
<g fill="rgb(0%, 0%, 0%)" fill-opacity="1">
<use xlink:href="#glyph-0-4" x="181.599419" y="26.231005"/>
</g>
<g fill="rgb(0%, 0%, 0%)" fill-opacity="1">
<use xlink:href="#glyph-0-5" x="176.426422" y="28.237145"/>
</g>
<g fill="rgb(0%, 0%, 0%)" fill-opacity="1">
<use xlink:href="#glyph-2-1" x="181.179691" y="30.110007"/>
</g>
<path fill="none" stroke-width="0.44832" stroke-linecap="round" stroke-linejoin="round" stroke="rgb(0%, 0%, 0%)" stroke-opacity="1" stroke-miterlimit="10" d="M 110.860329 40.869224 C 114.59921 44.478501 119.331722 46.889921 122.4108 47.431902 " transform="matrix(0.994616, 0, 0, -0.994616, -3.509539, 143.422617)"/>
<path fill-rule="nonzero" fill="rgb(0%, 0%, 0%)" fill-opacity="1" d="M 120.269531 95.886719 L 116.742188 94.839844 L 118.242188 96.246094 L 117.316406 98.078125 "/>
<path fill="none" stroke-width="0.44832" stroke-linecap="round" stroke-linejoin="round" stroke="rgb(0%, 0%, 0%)" stroke-opacity="1" stroke-miterlimit="10" d="M 124.449118 47.793222 C 129.566514 48.696523 134.837079 48.048503 137.696223 46.776027 " transform="matrix(0.994616, 0, 0, -0.994616, -3.509539, 143.422617)"/>
<path fill-rule="nonzero" fill="rgb(0%, 0%, 0%)" fill-opacity="1" d="M 135.324219 97.734375 L 132.988281 94.894531 L 133.445312 96.898438 L 131.648438 97.902344 "/>
<g fill="rgb(0%, 0%, 0%)" fill-opacity="1">
<use xlink:href="#glyph-0-6" x="105.403885" y="93.015484"/>
</g>
<g fill="rgb(0%, 0%, 0%)" fill-opacity="1">
<use xlink:href="#glyph-2-0" x="110.209869" y="94.888346"/>
</g>
<g fill="rgb(0%, 0%, 0%)" fill-opacity="1">
<use xlink:href="#glyph-0-6" x="124.842658" y="89.552231"/>
</g>
<g fill="rgb(0%, 0%, 0%)" fill-opacity="1">
<use xlink:href="#glyph-2-1" x="129.470606" y="91.425093"/>
</g>
</svg>
