<?xml version="1.0" encoding="UTF-8"?>
<!-- wave-generated-sha256: e7b71301e5d788c9 -->
<svg xmlns="http://www.w3.org/2000/svg" xmlns:xlink="http://www.w3.org/1999/xlink" width="292.55pt" height="196.622pt" viewBox="0 0 292.55 196.622">
<defs>
<g>
<g id="glyph-0-0">
<path d="M 2.484375 -1.125 L 2.4375 -1.125 L 2.375 -2.171875 L 2.109375 -4.71875 C 2.109375 -4.78125 2.078125 -4.984375 2.078125 -5.046875 C 2.046875 -5.4375 2.34375 -5.609375 2.796875 -5.609375 L 2.8125 -5.875 L 0.625 -5.875 L 0.609375 -5.609375 C 1.078125 -5.609375 1.234375 -5.40625 1.3125 -4.796875 L 1.8125 0.046875 L 2.109375 0.046875 L 5.390625 -4.65625 C 5.9375 -5.46875 6.109375 -5.609375 6.59375 -5.609375 L 6.609375 -5.875 L 4.6875 -5.875 L 4.671875 -5.609375 C 5.0625 -5.609375 5.203125 -5.5625 5.203125 -5.375 C 5.203125 -5.234375 5.078125 -5.03125 4.921875 -4.796875 Z M 2.484375 -1.125 "/>
</g>
<g id="glyph-0-1">
<path d="M 2.84375 -4.1875 L 1.9375 -4.1875 L 2.1875 -5.3125 L 1.921875 -5.3125 C 1.46875 -4.53125 1.25 -4.3125 0.671875 -4.015625 L 0.640625 -3.828125 L 1.140625 -3.828125 L 0.53125 -0.90625 C 0.515625 -0.8125 0.46875 -0.546875 0.46875 -0.390625 C 0.46875 -0.109375 0.640625 0.078125 1.015625 0.078125 C 1.734375 0.078125 2.109375 -0.578125 2.359375 -0.9375 L 2.1875 -1.0625 C 1.875 -0.65625 1.6875 -0.53125 1.421875 -0.53125 C 1.296875 -0.53125 1.265625 -0.625 1.265625 -0.71875 C 1.265625 -0.875 1.328125 -1.15625 1.328125 -1.15625 L 1.859375 -3.828125 L 2.765625 -3.828125 Z M 2.84375 -4.1875 "/>
</g>
<g id="glyph-0-2">
<path d="M 5.890625 -2.921875 L 5.890625 -3.53125 L 0.5625 -3.53125 L 0.5625 -2.921875 Z M 5.890625 -1.09375 L 5.890625 -1.703125 L 0.5625 -1.703125 L 0.5625 -1.09375 Z M 5.890625 -1.09375 "/>
</g>
<g id="glyph-0-3">
<path d="M 4.1875 -2.84375 C 4.1875 -4.6875 3.390625 -5.75 2.234375 -5.75 C 0.9375 -5.75 0.234375 -4.5625 0.234375 -2.859375 C 0.234375 -1.28125 0.765625 0.09375 2.21875 0.09375 C 3.609375 0.09375 4.1875 -1.3125 4.1875 -2.84375 Z M 3.328125 -2.78125 C 3.328125 -1.0625 2.921875 -0.21875 2.21875 -0.21875 C 1.5 -0.21875 1.09375 -1.078125 1.09375 -2.8125 C 1.09375 -4.59375 1.5 -5.4375 2.203125 -5.4375 C 2.9375 -5.4375 3.328125 -4.609375 3.328125 -2.78125 Z M 3.328125 -2.78125 "/>
</g>
<g id="glyph-0-4">
<path d="M 3.203125 -1.09375 C 2.921875 -0.765625 2.578125 -0.515625 1.953125 -0.515625 C 1.4375 -0.515625 0.96875 -0.6875 0.96875 -1.640625 C 0.96875 -2.6875 1.515625 -4 2.5 -4 C 2.796875 -4 2.953125 -3.890625 2.953125 -3.75 C 2.953125 -3.609375 2.78125 -3.359375 2.78125 -3.125 C 2.78125 -2.921875 2.90625 -2.8125 3.109375 -2.8125 C 3.453125 -2.8125 3.609375 -3.09375 3.609375 -3.453125 C 3.609375 -4.03125 3.15625 -4.28125 2.59375 -4.28125 C 1.3125 -4.28125 0.234375 -3 0.234375 -1.515625 C 0.234375 -0.609375 0.640625 0.109375 1.609375 0.109375 C 2.40625 0.109375 2.984375 -0.390625 3.359375 -0.96875 Z M 3.203125 -1.09375 "/>
</g>
<g id="glyph-0-5">
<path d="M 1.453125 1.96875 L 1.453125 -6.328125 L 0.9375 -6.328125 L 0.9375 1.96875 Z M 1.453125 1.96875 "/>
</g>
<g id="glyph-0-6">
<path d="M 4.453125 -4.25 C 4.453125 -5.546875 4.0625 -6.421875 3.203125 -6.421875 C 1.75 -6.421875 0.5 -4.3125 0.5 -1.859375 C 0.5 -0.46875 1.078125 0.125 1.875 0.125 C 3.28125 0.125 4.453125 -1.515625 4.453125 -4.25 Z M 2.0625 -0.65625 C 1.578125 -0.65625 0.96875 -0.96875 0.96875 -2.234375 C 0.96875 -2.46875 1 -2.796875 1.015625 -3.03125 L 3.9375 -3.03125 C 3.6875 -1.328125 2.921875 -0.65625 2.0625 -0.65625 Z M 3.03125 -5.640625 C 3.71875 -5.640625 4.015625 -4.875 4.015625 -4.03125 C 4.015625 -3.875 4 -3.671875 4 -3.5 L 1.109375 -3.5 C 1.421875 -4.84375 2.265625 -5.640625 3.03125 -5.640625 Z M 3.03125 -5.640625 "/>
</g>
<g id="glyph-1-0">
<path d="M 5.953125 0.046875 L 7.6875 -5 C 7.84375 -5.453125 8.015625 -5.609375 8.4375 -5.609375 L 8.4375 -5.875 L 6.59375 -5.875 L 6.59375 -5.609375 C 7.015625 -5.609375 7.203125 -5.5 7.203125 -5.234375 C 7.203125 -5.015625 7.125 -4.75 7.03125 -4.453125 L 6.015625 -1.484375 L 5.96875 -1.484375 L 5.671875 -2.375 L 4.75 -4.796875 C 4.6875 -4.953125 4.59375 -5.171875 4.59375 -5.3125 C 4.59375 -5.5 4.828125 -5.609375 5.265625 -5.609375 L 5.265625 -5.875 L 2.9375 -5.875 L 2.9375 -5.609375 C 3.453125 -5.609375 3.59375 -5.546875 3.875 -4.765625 L 4.125 -4.078125 L 3.109375 -1.453125 L 3.078125 -1.453125 L 2.796875 -2.21875 L 1.75 -4.828125 C 1.671875 -5.0625 1.625 -5.203125 1.625 -5.3125 C 1.625 -5.5 1.765625 -5.609375 2.21875 -5.609375 L 2.21875 -5.875 L -0.09375 -5.875 L -0.09375 -5.609375 C 0.375 -5.59375 0.625 -5.390625 0.890625 -4.640625 L 2.75 0.046875 L 2.984375 0.046875 L 4.328125 -3.5 L 4.375 -3.5 L 5.71875 0.046875 Z M 5.953125 0.046875 "/>
</g>
<g id="glyph-1-1">
<path d="M 1.40625 0.0625 C 1.984375 0.0625 2.296875 -0.1875 2.71875 -0.5625 L 2.75 -0.5625 C 2.8125 -0.15625 2.90625 0.046875 3.296875 0.046875 C 3.75 0.046875 3.96875 -0.140625 4.265625 -0.578125 L 4.125 -0.71875 C 4 -0.578125 3.875 -0.5 3.703125 -0.5 C 3.515625 -0.5 3.4375 -0.5625 3.4375 -0.9375 L 3.4375 -2.96875 C 3.4375 -3.890625 3.078125 -4.34375 2.09375 -4.34375 C 1.125 -4.34375 0.515625 -3.859375 0.515625 -3.359375 C 0.515625 -3.0625 0.71875 -2.921875 0.890625 -2.921875 C 1.140625 -2.921875 1.296875 -3.0625 1.296875 -3.34375 C 1.296875 -3.875 1.375 -4.0625 1.890625 -4.0625 C 2.421875 -4.0625 2.6875 -3.765625 2.6875 -2.984375 L 2.6875 -2.59375 C 1.921875 -2.359375 0.34375 -2.125 0.34375 -0.9375 C 0.34375 -0.359375 0.71875 0.0625 1.40625 0.0625 Z M 2.6875 -0.828125 C 2.390625 -0.578125 2.0625 -0.4375 1.765625 -0.4375 C 1.390625 -0.4375 1.125 -0.703125 1.125 -1.15625 C 1.125 -1.859375 1.875 -2.09375 2.6875 -2.296875 Z M 2.6875 -0.828125 "/>
</g>
<g id="glyph-1-2">
<path d="M 2.375 0.046875 L 3.78125 -3.390625 C 3.96875 -3.84375 4.109375 -3.96875 4.453125 -3.96875 L 4.453125 -4.234375 L 2.890625 -4.234375 L 2.890625 -3.96875 C 3.21875 -3.96875 3.40625 -3.9375 3.40625 -3.734375 C 3.40625 -3.59375 3.34375 -3.484375 3.34375 -3.4375 L 2.5625 -1.421875 L 2.375 -0.875 L 2.328125 -0.875 L 2.15625 -1.40625 L 1.390625 -3.40625 C 1.34375 -3.53125 1.3125 -3.640625 1.3125 -3.75 C 1.3125 -3.890625 1.421875 -3.96875 1.765625 -3.96875 L 1.765625 -4.234375 L -0.109375 -4.234375 L -0.109375 -3.96875 C 0.265625 -3.96875 0.375 -3.875 0.609375 -3.328125 L 1.9375 0.046875 Z M 2.375 0.046875 "/>
</g>
<g id="glyph-1-3">
<path d="M 2.21875 0.09375 C 3.140625 0.09375 3.5625 -0.46875 3.890625 -1.15625 L 3.71875 -1.28125 C 3.421875 -0.90625 3.15625 -0.578125 2.421875 -0.578125 C 1.6875 -0.578125 1.03125 -1.15625 1.015625 -2.375 L 3.859375 -2.375 C 3.8125 -3.640625 3.171875 -4.34375 2.1875 -4.34375 C 1.140625 -4.34375 0.296875 -3.625 0.296875 -2.125 C 0.296875 -0.6875 1.140625 0.09375 2.21875 0.09375 Z M 1.03125 -2.71875 C 1.09375 -3.53125 1.4375 -3.984375 2.0625 -3.984375 C 2.6875 -3.984375 2.984375 -3.375 3.015625 -2.71875 Z M 1.03125 -2.71875 "/>
</g>
<g id="glyph-1-4">
<path d="M 0.375 0.078125 L 0.5625 0.078125 L 0.75 -0.140625 L 0.765625 -0.140625 C 1 -0.03125 1.265625 0.09375 1.796875 0.09375 C 2.59375 0.09375 3.296875 -0.21875 3.296875 -1.0625 C 3.296875 -1.734375 2.859375 -2.0625 2.046875 -2.484375 C 1.296875 -2.875 1 -3.09375 1 -3.453125 C 1 -3.84375 1.3125 -4.03125 1.71875 -4.03125 C 2.265625 -4.03125 2.59375 -3.78125 2.796875 -2.921875 L 3.03125 -2.921875 L 3.015625 -4.296875 L 2.828125 -4.296875 L 2.671875 -4.109375 C 2.4375 -4.21875 2.171875 -4.34375 1.734375 -4.34375 C 0.953125 -4.34375 0.359375 -3.953125 0.359375 -3.21875 C 0.359375 -2.546875 0.71875 -2.234375 1.546875 -1.828125 C 2.375 -1.421875 2.546875 -1.25 2.546875 -0.828125 C 2.546875 -0.40625 2.21875 -0.234375 1.765625 -0.234375 C 1.109375 -0.234375 0.765625 -0.546875 0.578125 -1.46875 L 0.34375 -1.46875 Z M 0.375 0.078125 "/>
</g>
<g id="glyph-1-5">
<path d="M 1.90625 0 L 1.90625 -0.265625 C 1.484375 -0.265625 1.3125 -0.328125 1.3125 -0.578125 C 1.3125 -0.734375 1.359375 -0.875 1.40625 -1.015625 L 1.8125 -1.953125 L 4.09375 -1.953125 L 4.453125 -1.15625 C 4.5625 -0.890625 4.609375 -0.71875 4.609375 -0.59375 C 4.609375 -0.28125 4.25 -0.265625 3.984375 -0.265625 L 3.984375 0 L 6.390625 0 L 6.390625 -0.265625 C 5.90625 -0.265625 5.734375 -0.46875 5.46875 -1.0625 L 3.34375 -5.921875 L 2.984375 -5.921875 L 1.078125 -1.4375 C 0.65625 -0.40625 0.53125 -0.265625 0.03125 -0.265625 L 0.03125 0 Z M 1.9375 -2.3125 L 2.953125 -4.828125 L 2.984375 -4.828125 L 3.96875 -2.3125 Z M 1.9375 -2.3125 "/>
</g>
<g id="glyph-1-6">
<path d="M 1.234375 -6.328125 L 0.078125 -6 L 0.078125 -5.75 C 0.078125 -5.75 0.171875 -5.78125 0.328125 -5.78125 C 0.65625 -5.78125 0.71875 -5.703125 0.71875 -5.296875 L 0.71875 -0.265625 C 0.9375 -0.15625 1.453125 0.09375 2.21875 0.09375 C 3.453125 0.09375 4.359375 -0.75 4.359375 -2.359375 C 4.359375 -3.515625 3.75 -4.34375 2.859375 -4.34375 C 2.265625 -4.34375 1.796875 -3.953125 1.484375 -3.578125 L 1.453125 -3.578125 L 1.453125 -6.328125 Z M 1.453125 -3.1875 C 1.625 -3.40625 2.015625 -3.734375 2.46875 -3.734375 C 3.328125 -3.734375 3.546875 -2.921875 3.546875 -2.0625 C 3.546875 -1.078125 3.21875 -0.28125 2.375 -0.28125 C 1.890625 -0.28125 1.625 -0.5 1.453125 -0.703125 Z M 1.453125 -3.1875 "/>
</g>
<g id="glyph-1-7">
<path d="M 2.3125 0.09375 C 3.46875 0.09375 4.296875 -0.703125 4.296875 -2.203125 C 4.296875 -3.53125 3.53125 -4.34375 2.3125 -4.34375 C 1.09375 -4.34375 0.296875 -3.46875 0.296875 -2.171875 C 0.296875 -0.71875 1.0625 0.09375 2.3125 0.09375 Z M 2.34375 -0.265625 C 1.578125 -0.265625 1.140625 -0.859375 1.140625 -2.28125 C 1.140625 -3.421875 1.59375 -4 2.28125 -4 C 3.078125 -4 3.46875 -3.265625 3.46875 -2.15625 C 3.46875 -0.703125 3.078125 -0.265625 2.34375 -0.265625 Z M 2.34375 -0.265625 "/>
</g>
<g id="glyph-1-8">
<path d="M 2.328125 0 L 2.328125 -0.265625 C 1.6875 -0.265625 1.640625 -0.390625 1.640625 -0.90625 L 1.640625 -6.328125 L 1.421875 -6.328125 L 0.234375 -6 L 0.234375 -5.765625 C 0.234375 -5.765625 0.359375 -5.78125 0.515625 -5.78125 C 0.75 -5.78125 0.890625 -5.765625 0.890625 -5.40625 L 0.890625 -0.90625 C 0.890625 -0.40625 0.859375 -0.265625 0.265625 -0.265625 L 0.265625 0 Z M 2.328125 0 "/>
</g>
<g id="glyph-1-9">
<path d="M 1.984375 0.09375 C 2.5625 0.09375 2.984375 -0.171875 3.453125 -0.640625 L 3.5 -0.640625 L 3.5 0.046875 L 3.703125 0.046875 L 4.828125 -0.15625 L 4.828125 -0.40625 L 4.75 -0.40625 C 4.3125 -0.40625 4.203125 -0.46875 4.203125 -1 L 4.203125 -4.28125 L 4 -4.28125 L 2.734375 -4.140625 L 2.734375 -3.890625 C 3.3125 -3.890625 3.46875 -3.84375 3.46875 -3.375 L 3.46875 -1.015625 C 3.109375 -0.703125 2.8125 -0.484375 2.359375 -0.484375 C 1.890625 -0.484375 1.5625 -0.75 1.5625 -1.671875 L 1.5625 -4.28125 L 1.359375 -4.28125 L 0.203125 -4.140625 L 0.203125 -3.890625 C 0.6875 -3.890625 0.8125 -3.84375 0.8125 -3.359375 L 0.8125 -1.546875 C 0.8125 -0.328125 1.25 0.09375 1.984375 0.09375 Z M 1.984375 0.09375 "/>
</g>
<g id="glyph-1-10">
<path d="M 2.625 -0.8125 C 2.40625 -0.5625 2.28125 -0.4375 2 -0.4375 C 1.640625 -0.4375 1.5625 -0.65625 1.5625 -1.296875 L 1.5625 -3.8125 L 2.578125 -3.8125 L 2.578125 -4.1875 L 1.5625 -4.1875 L 1.5625 -5.46875 L 1.34375 -5.46875 C 1.015625 -4.703125 0.75 -4.28125 0.328125 -4.015625 L 0.328125 -3.8125 L 0.828125 -3.8125 L 0.828125 -1.03125 C 0.828125 -0.234375 1.078125 0.09375 1.6875 0.09375 C 2.25 0.09375 2.4375 -0.171875 2.796875 -0.65625 Z M 2.625 -0.8125 "/>
</g>
<g id="glyph-1-11">
<path d="M 0.6875 2.109375 C 1.453125 2.109375 1.875 1.5625 2.40625 0.203125 L 3.796875 -3.46875 C 3.921875 -3.828125 4.0625 -3.96875 4.40625 -3.96875 L 4.40625 -4.234375 L 2.890625 -4.234375 L 2.890625 -3.96875 C 3.1875 -3.96875 3.390625 -3.9375 3.390625 -3.75 C 3.390625 -3.6875 3.359375 -3.59375 3.34375 -3.53125 L 2.484375 -0.9375 L 2.421875 -0.9375 L 2.296875 -1.375 L 1.421875 -3.34375 C 1.375 -3.46875 1.296875 -3.609375 1.296875 -3.734375 C 1.296875 -3.890625 1.40625 -3.96875 1.8125 -3.96875 L 1.8125 -4.234375 L -0.109375 -4.234375 L -0.109375 -3.96875 C 0.21875 -3.96875 0.34375 -3.859375 0.4375 -3.65625 L 1.75 -0.78125 C 1.859375 -0.53125 2.015625 -0.15625 2.015625 -0.046875 C 2.015625 0.21875 1.484375 1.453125 1.15625 1.453125 C 1.03125 1.453125 0.765625 1.25 0.46875 1.25 C 0.234375 1.25 0.046875 1.375 0.046875 1.640625 C 0.046875 1.984375 0.328125 2.109375 0.6875 2.109375 Z M 0.6875 2.109375 "/>
</g>
<g id="glyph-1-12">
<path d="M 5.59375 0.078125 L 5.59375 -4.40625 C 5.59375 -5.265625 5.71875 -5.609375 6.40625 -5.609375 L 6.40625 -5.875 L 4.28125 -5.875 L 4.28125 -5.609375 C 5.0625 -5.609375 5.140625 -5.296875 5.140625 -4.453125 L 5.140625 -1.5625 L 5.09375 -1.5625 L 1.78125 -5.875 L 0.265625 -5.875 L 0.265625 -5.609375 C 0.640625 -5.609375 0.8125 -5.53125 1.09375 -5.15625 L 1.09375 -1.328125 C 1.09375 -0.4375 0.96875 -0.265625 0.265625 -0.265625 L 0.265625 0 L 2.359375 0 L 2.359375 -0.265625 C 1.6875 -0.265625 1.546875 -0.4375 1.546875 -1.328125 L 1.546875 -4.71875 L 1.578125 -4.71875 L 5.296875 0.078125 Z M 5.59375 0.078125 "/>
</g>
</g>
</defs>
<path fill="none" stroke-width="0.71732" stroke-linecap="round" stroke-linejoin="round" stroke="rgb(0%, 0%, 0%)" stroke-opacity="1" stroke-miterlimit="10" d="M 259.369557 65.198271 L 46.343619 158.169632 " transform="matrix(0.998081, 0, 0, -0.998081, -16.125789, 163.194264)"/>
<path fill="none" stroke-width="0.71732" stroke-linecap="round" stroke-linejoin="round" stroke="rgb(0%, 0%, 0%)" stroke-opacity="1" stroke-miterlimit="10" d="M 259.369557 65.198271 L 46.343619 -27.773089 " transform="matrix(0.998081, 0, 0, -0.998081, -16.125789, 163.194264)"/>
<path fill="none" stroke-width="0.59778" stroke-linecap="round" stroke-linejoin="round" stroke="rgb(0%, 0%, 0%)" stroke-opacity="1" stroke-miterlimit="10" d="M 208.345872 65.198271 C 208.345872 83.984318 193.117433 99.212756 174.331387 99.212756 C 155.545341 99.212756 140.312988 83.984318 140.312988 65.198271 C 140.312988 46.412225 155.545341 31.179872 174.331387 31.179872 C 193.117433 31.179872 208.345872 46.412225 208.345872 65.198271 Z M 208.345872 65.198271 " transform="matrix(0.998081, 0, 0, -0.998081, -16.125789, 163.194264)"/>
<path fill="none" stroke-width="0.59778" stroke-linecap="round" stroke-linejoin="round" stroke="rgb(0%, 0%, 0%)" stroke-opacity="1" stroke-miterlimit="10" d="M 165.826787 65.198271 C 165.826787 99.639356 137.906026 127.560118 103.464941 127.560118 C 69.023856 127.560118 41.103095 99.639356 41.103095 65.198271 C 41.103095 30.753273 69.023856 2.836425 103.464941 2.836425 C 137.906026 2.836425 165.826787 30.753273 165.826787 65.198271 Z M 165.826787 65.198271 " transform="matrix(0.998081, 0, 0, -0.998081, -16.125789, 163.194264)"/>
<path fill="none" stroke-width="0.89664" stroke-linecap="round" stroke-linejoin="round" stroke="rgb(0%, 0%, 0%)" stroke-opacity="1" stroke-miterlimit="10" d="M 259.369557 65.198271 L 284.977286 65.198271 " transform="matrix(0.998081, 0, 0, -0.998081, -16.125789, 163.194264)"/>
<path fill-rule="nonzero" fill="rgb(0%, 0%, 0%)" fill-opacity="1" d="M 271.039062 98.121094 L 266.664062 95.933594 L 268.304688 98.121094 L 266.664062 100.308594 "/>
<g fill="rgb(0%, 0%, 0%)" fill-opacity="1">
<use xlink:href="#glyph-0-0" x="274.799915" y="101.039754"/>
</g>
<g fill="rgb(0%, 0%, 0%)" fill-opacity="1">
<use xlink:href="#glyph-0-1" x="233.244803" y="109.36974"/>
</g>
<g fill="rgb(0%, 0%, 0%)" fill-opacity="1">
<use xlink:href="#glyph-0-2" x="238.882784" y="109.36974"/>
</g>
<g fill="rgb(0%, 0%, 0%)" fill-opacity="1">
<use xlink:href="#glyph-0-3" x="247.814061" y="109.36974"/>
</g>
<path fill="none" stroke-width="0.47821" stroke-linecap="round" stroke-linejoin="round" stroke="rgb(0%, 0%, 0%)" stroke-opacity="1" stroke-miterlimit="10" d="M 174.331387 65.198271 L 187.070675 33.657282 " transform="matrix(0.998081, 0, 0, -0.998081, -16.125789, 163.194264)"/>
<g fill="rgb(0%, 0%, 0%)" fill-opacity="1">
<use xlink:href="#glyph-0-4" x="157.140112" y="121.516388"/>
<use xlink:href="#glyph-0-5" x="160.845071" y="121.516388"/>
<use xlink:href="#glyph-0-1" x="163.234501" y="121.516388"/>
</g>
<g fill="rgb(0%, 0%, 0%)" fill-opacity="1">
<use xlink:href="#glyph-0-5" x="166.39356" y="121.516388"/>
</g>
<path fill="none" stroke-width="0.47821" stroke-linecap="round" stroke-linejoin="round" stroke="rgb(0%, 0%, 0%)" stroke-opacity="1" stroke-miterlimit="10" d="M 103.464941 65.198271 L 122.736293 5.885244 " transform="matrix(0.998081, 0, 0, -0.998081, -16.125789, 163.194264)"/>
<g fill="rgb(0%, 0%, 0%)" fill-opacity="1">
<use xlink:href="#glyph-0-4" x="83.580528" y="137.076475"/>
<use xlink:href="#glyph-0-5" x="87.285487" y="137.076475"/>
<use xlink:href="#glyph-0-1" x="89.674917" y="137.076475"/>
</g>
<g fill="rgb(0%, 0%, 0%)" fill-opacity="1">
<use xlink:href="#glyph-0-5" x="92.833976" y="137.076475"/>
</g>
<g fill="rgb(0%, 0%, 0%)" fill-opacity="1">
<use xlink:href="#glyph-1-0" x="13.015188" y="101.012806"/>
</g>
<g fill="rgb(0%, 0%, 0%)" fill-opacity="1">
<use xlink:href="#glyph-1-1" x="20.926259" y="101.012806"/>
</g>
<g fill="rgb(0%, 0%, 0%)" fill-opacity="1">
<use xlink:href="#glyph-1-2" x="24.998134" y="101.012806"/>
</g>
<g fill="rgb(0%, 0%, 0%)" fill-opacity="1">
<use xlink:href="#glyph-1-3" x="29.257942" y="101.012806"/>
<use xlink:href="#glyph-1-4" x="33.410359" y="101.012806"/>
</g>
<g fill="rgb(0%, 0%, 0%)" fill-opacity="1">
<use xlink:href="#glyph-1-5" x="119.407652" y="46.474654"/>
<use xlink:href="#glyph-1-6" x="125.83316" y="46.474654"/>
<use xlink:href="#glyph-1-4" x="130.504629" y="46.474654"/>
<use xlink:href="#glyph-1-7" x="134.039554" y="46.474654"/>
<use xlink:href="#glyph-1-8" x="138.63943" y="46.474654"/>
<use xlink:href="#glyph-1-9" x="141.172046" y="46.474654"/>
<use xlink:href="#glyph-1-10" x="146.273076" y="46.474654"/>
</g>
<g fill="rgb(0%, 0%, 0%)" fill-opacity="1">
<use xlink:href="#glyph-1-3" x="149.047321" y="46.474654"/>
<use xlink:href="#glyph-1-8" x="153.199738" y="46.474654"/>
<use xlink:href="#glyph-1-11" x="155.732355" y="46.474654"/>
</g>
<g fill="rgb(0%, 0%, 0%)" fill-opacity="1">
<use xlink:href="#glyph-1-12" x="162.157863" y="46.474654"/>
</g>
<g fill="rgb(0%, 0%, 0%)" fill-opacity="1">
<use xlink:href="#glyph-1-7" x="168.708659" y="46.474654"/>
</g>
<g fill="rgb(0%, 0%, 0%)" fill-opacity="1">
<use xlink:href="#glyph-1-0" x="175.232608" y="46.474654"/>
</g>
<g fill="rgb(0%, 0%, 0%)" fill-opacity="1">
<use xlink:href="#glyph-1-1" x="183.143679" y="46.474654"/>
</g>
<g fill="rgb(0%, 0%, 0%)" fill-opacity="1">
<use xlink:href="#glyph-1-2" x="187.215554" y="46.474654"/>
</g>
<g fill="rgb(0%, 0%, 0%)" fill-opacity="1">
<use xlink:href="#glyph-1-3" x="191.475362" y="46.474654"/>
<use xlink:href="#glyph-1-4" x="195.627779" y="46.474654"/>
</g>
<g fill="rgb(0%, 0%, 0%)" fill-opacity="1">
<use xlink:href="#glyph-1-5" x="119.407652" y="153.984968"/>
<use xlink:href="#glyph-1-6" x="125.83316" y="153.984968"/>
<use xlink:href="#glyph-1-4" x="130.504629" y="153.984968"/>
<use xlink:href="#glyph-1-7" x="134.039554" y="153.984968"/>
<use xlink:href="#glyph-1-8" x="138.63943" y="153.984968"/>
<use xlink:href="#glyph-1-9" x="141.172046" y="153.984968"/>
<use xlink:href="#glyph-1-10" x="146.273076" y="153.984968"/>
</g>
<g fill="rgb(0%, 0%, 0%)" fill-opacity="1">
<use xlink:href="#glyph-1-3" x="149.047321" y="153.984968"/>
<use xlink:href="#glyph-1-8" x="153.199738" y="153.984968"/>
<use xlink:href="#glyph-1-11" x="155.732355" y="153.984968"/>
</g>
<g fill="rgb(0%, 0%, 0%)" fill-opacity="1">
<use xlink:href="#glyph-1-12" x="162.157863" y="153.984968"/>
</g>
<g fill="rgb(0%, 0%, 0%)" fill-opacity="1">
<use xlink:href="#glyph-1-7" x="168.708659" y="153.984968"/>
</g>
<g fill="rgb(0%, 0%, 0%)" fill-opacity="1">
<use xlink:href="#glyph-1-0" x="175.232608" y="153.984968"/>
</g>
<g fill="rgb(0%, 0%, 0%)" fill-opacity="1">
<use xlink:href="#glyph-1-1" x="183.143679" y="153.984968"/>
</g>
<g fill="rgb(0%, 0%, 0%)" fill-opacity="1">
<use xlink:href="#glyph-1-2" x="187.215554" y="153.984968"/>
</g>
<g fill="rgb(0%, 0%, 0%)" fill-opacity="1">
<use xlink:href="#glyph-1-3" x="191.475362" y="153.984968"/>
<use xlink:href="#glyph-1-4" x="195.627779" y="153.984968"/>
</g>
<path fill="none" stroke-width="0.39851" stroke-linecap="round" stroke-linejoin="round" stroke="rgb(0%, 0%, 0%)" stroke-opacity="1" stroke-miterlimit="10" d="M 236.693233 65.198271 C 236.693233 62.075091 237.339004 58.987135 238.587493 56.126176 " transform="matrix(0.998081, 0, 0, -0.998081, -16.125789, 163.194264)"/>
<g fill="rgb(0%, 0%, 0%)" fill-opacity="1">
<use xlink:href="#glyph-0-6" x="209.3188" y="107.74686"/>
</g>
</svg>
