<?xml version="1.0" encoding="UTF-8"?>
<!-- wave-generated-sha256: d9043f952c650b00 -->
<svg xmlns="http://www.w3.org/2000/svg" xmlns:xlink="http://www.w3.org/1999/xlink" width="282.441pt" height="149.585pt" viewBox="0 0 282.441 149.585">
<defs>
<g>
<g id="glyph-0-0">
<path d="M 2.28125 -6.296875 L 2.09375 -6.296875 L 0.859375 -6.203125 L 0.859375 -5.96875 C 0.859375 -5.96875 1.03125 -5.984375 1.140625 -5.984375 C 1.359375 -5.984375 1.453125 -5.90625 1.453125 -5.703125 C 1.453125 -5.59375 1.421875 -5.4375 1.421875 -5.4375 L 0.359375 0 L 1.09375 0 L 1.40625 -1.640625 L 1.9375 -2.09375 L 2.546875 -0.609375 C 2.6875 -0.28125 2.84375 0.09375 3.296875 0.09375 C 3.984375 0.09375 4.4375 -0.734375 4.53125 -0.90625 L 4.34375 -1.03125 C 4.140625 -0.765625 3.9375 -0.515625 3.640625 -0.515625 C 3.375 -0.515625 3.28125 -0.703125 3.15625 -1 L 2.5 -2.53125 L 3.484375 -3.421875 C 3.78125 -3.6875 4.0625 -3.9375 4.671875 -3.953125 L 4.6875 -4.171875 L 2.765625 -4.171875 L 2.75 -3.953125 C 2.953125 -3.953125 3.140625 -3.90625 3.140625 -3.71875 C 3.140625 -3.59375 3.0625 -3.5 2.9375 -3.390625 L 1.53125 -2.125 L 1.5 -2.125 Z M 2.28125 -6.296875 "/>
</g>
<g id="glyph-0-1">
<path d="M 5.078125 -4.234375 C 4.765625 -4.21875 4.375 -4.1875 3.953125 -4.1875 C 3.53125 -4.1875 3.078125 -4.21875 2.6875 -4.21875 C 1.25 -4.21875 0.359375 -3.125 0.359375 -1.46875 C 0.359375 -0.828125 0.609375 0.125 1.734375 0.125 C 3.015625 0.125 3.953125 -0.78125 3.953125 -2.203125 C 3.96875 -2.765625 3.6875 -3.21875 3.5625 -3.40625 C 3.5625 -3.421875 3.5625 -3.421875 3.546875 -3.4375 L 3.546875 -3.46875 C 3.78125 -3.453125 3.90625 -3.453125 4.109375 -3.453125 C 4.796875 -3.453125 5.03125 -3.828125 5.09375 -4.109375 Z M 3.203125 -3.484375 C 3.359375 -3.171875 3.453125 -2.84375 3.453125 -2.390625 C 3.453125 -1.03125 2.609375 -0.609375 1.859375 -0.609375 C 1.28125 -0.609375 0.796875 -0.9375 0.796875 -1.71875 C 0.796875 -2.953125 1.703125 -3.5 2.5625 -3.5 C 2.765625 -3.5 3 -3.484375 3.203125 -3.484375 Z M 3.203125 -3.484375 "/>
</g>
<g id="glyph-0-2">
<path d="M 1.703125 -4.171875 L 1.65625 -3.8125 L 2.40625 -3.8125 L 1.828125 -0.328125 C 1.734375 0.265625 1.5 1.71875 1.03125 1.71875 C 0.6875 1.71875 0.984375 0.921875 0.453125 0.921875 C 0.21875 0.921875 0.09375 1.125 0.09375 1.375 C 0.09375 1.6875 0.3125 2.015625 0.890625 2.015625 C 2.109375 2.015625 2.515625 0.015625 2.640625 -0.765625 L 3.15625 -3.8125 L 4 -3.8125 L 4.046875 -4.171875 L 3.203125 -4.171875 L 3.3125 -4.8125 C 3.4375 -5.5625 3.671875 -6.09375 4.125 -6.09375 C 4.328125 -6.09375 4.359375 -5.875 4.390625 -5.65625 C 4.421875 -5.46875 4.5 -5.3125 4.75 -5.3125 C 4.9375 -5.3125 5.109375 -5.4375 5.109375 -5.703125 C 5.109375 -6.09375 4.796875 -6.359375 4.25 -6.359375 C 3.484375 -6.359375 3.125 -5.9375 2.890625 -5.515625 C 2.6875 -5.15625 2.578125 -4.671875 2.46875 -4.171875 Z M 1.703125 -4.171875 "/>
</g>
<g id="glyph-0-3">
<path d="M 7 -5.875 L 4.890625 -5.875 L 4.828125 -5.609375 C 5.203125 -5.609375 5.375 -5.5625 5.484375 -5.375 C 5.5625 -5.234375 5.5625 -4.984375 5.453125 -4.453125 L 4.84375 -1.46875 L 4.796875 -1.46875 L 2.390625 -5.875 L 0.984375 -5.875 L 0.921875 -5.609375 C 1.3125 -5.609375 1.46875 -5.515625 1.671875 -5.1875 L 0.875 -1.328125 C 0.703125 -0.421875 0.5625 -0.265625 -0.140625 -0.265625 L -0.1875 0 L 1.875 0 L 1.921875 -0.265625 C 1.25 -0.265625 1.140625 -0.4375 1.3125 -1.328125 L 2.015625 -4.734375 L 2.0625 -4.734375 L 4.6875 0.078125 L 4.984375 0.078125 L 5.890625 -4.40625 C 6.03125 -5.109375 6.171875 -5.28125 6.34375 -5.421875 C 6.484375 -5.546875 6.625 -5.609375 6.9375 -5.609375 Z M 7 -5.875 "/>
</g>
<g id="glyph-0-4">
<path d="M 4.1875 -2.828125 C 4.1875 -4.671875 3.375 -5.734375 2.21875 -5.734375 C 0.921875 -5.734375 0.234375 -4.5625 0.234375 -2.859375 C 0.234375 -1.28125 0.765625 0.09375 2.203125 0.09375 C 3.609375 0.09375 4.1875 -1.3125 4.1875 -2.828125 Z M 3.3125 -2.78125 C 3.3125 -1.0625 2.90625 -0.21875 2.203125 -0.21875 C 1.5 -0.21875 1.09375 -1.078125 1.09375 -2.8125 C 1.09375 -4.578125 1.5 -5.4375 2.203125 -5.4375 C 2.9375 -5.4375 3.3125 -4.59375 3.3125 -2.78125 Z M 3.3125 -2.78125 "/>
</g>
<g id="glyph-0-5">
<path d="M 3.8125 0 L 3.8125 -0.25 C 2.984375 -0.25 2.65625 -0.40625 2.65625 -0.84375 L 2.65625 -5.71875 L 2.390625 -5.71875 L 0.65625 -5.21875 L 0.65625 -4.921875 C 0.9375 -5.015625 1.390625 -5.0625 1.578125 -5.0625 C 1.796875 -5.0625 1.875 -4.9375 1.875 -4.625 L 1.875 -0.84375 C 1.875 -0.40625 1.5625 -0.25 0.71875 -0.25 L 0.71875 0 Z M 3.8125 0 "/>
</g>
<g id="glyph-0-6">
<path d="M 4.140625 -1.4375 L 3.890625 -1.4375 C 3.6875 -0.890625 3.5625 -0.703125 3.09375 -0.703125 L 1.84375 -0.703125 L 1.21875 -0.671875 L 1.21875 -0.71875 L 2.40625 -1.84375 C 3.359375 -2.796875 3.859375 -3.421875 3.859375 -4.203125 C 3.859375 -5.140625 3.15625 -5.75 2.140625 -5.75 C 1.28125 -5.75 0.671875 -5.25 0.390625 -4.390625 L 0.609375 -4.296875 C 0.9375 -4.96875 1.328125 -5.171875 1.90625 -5.171875 C 2.59375 -5.171875 3.03125 -4.75 3.03125 -4.078125 C 3.03125 -3.140625 2.578125 -2.578125 1.703125 -1.65625 L 0.34375 -0.296875 L 0.34375 0 L 3.859375 0 Z M 4.140625 -1.4375 "/>
</g>
<g id="glyph-0-7">
<path d="M 0.765625 -4.453125 C 1.078125 -4.921875 1.40625 -5.171875 1.9375 -5.171875 C 2.5 -5.171875 2.84375 -4.875 2.84375 -4.34375 C 2.84375 -3.625 2.21875 -3.125 1.609375 -3.125 L 1.4375 -3.125 L 1.4375 -2.78125 L 1.625 -2.78125 C 2.46875 -2.78125 3.234375 -2.265625 3.234375 -1.46875 C 3.234375 -0.59375 2.6875 -0.328125 2.125 -0.328125 C 1.90625 -0.328125 1.78125 -0.359375 1.40625 -0.5625 C 1.09375 -0.71875 1.015625 -0.765625 0.875 -0.765625 C 0.640625 -0.765625 0.53125 -0.5625 0.53125 -0.375 C 0.53125 -0.140625 0.71875 0.109375 1.53125 0.109375 C 2.828125 0.109375 3.96875 -0.515625 3.96875 -1.734375 C 3.96875 -2.53125 3.375 -3 2.65625 -3.21875 L 2.65625 -3.25 C 3.21875 -3.609375 3.625 -3.9375 3.625 -4.5625 C 3.625 -5.234375 3.09375 -5.75 2.1875 -5.75 C 1.453125 -5.75 0.890625 -5.34375 0.5625 -4.5625 Z M 0.765625 -4.453125 "/>
</g>
<g id="glyph-0-8">
<path d="M 5.609375 -4.0625 C 5.484375 -3.421875 5.171875 -2.8125 4.546875 -2.8125 C 3.875 -2.8125 2.890625 -3.984375 2.015625 -3.984375 C 1.125 -3.984375 0.578125 -3.03125 0.53125 -2.109375 L 0.828125 -2.109375 C 0.96875 -2.765625 1.3125 -3.375 1.953125 -3.375 C 2.609375 -3.375 3.59375 -2.203125 4.46875 -2.203125 C 5.375 -2.203125 5.859375 -3.28125 5.921875 -4.0625 Z M 5.921875 -0.5 L 5.921875 -1.109375 L 0.53125 -1.109375 L 0.53125 -0.5 Z M 5.921875 -0.5 "/>
</g>
<g id="glyph-0-9">
<path d="M 0.40625 -2.40625 C 0.40625 -0.421875 1.34375 1 2.78125 1.75 L 2.921875 1.515625 C 1.625 0.640625 1.140625 -0.59375 1.140625 -2.40625 C 1.140625 -4.234375 1.625 -5.453125 2.921875 -6.34375 L 2.78125 -6.578125 C 1.34375 -5.828125 0.40625 -4.40625 0.40625 -2.40625 Z M 0.40625 -2.40625 "/>
</g>
<g id="glyph-0-10">
<path d="M 4.375 -4.171875 L 3.171875 -4.171875 C 2.953125 -4.234375 2.78125 -4.28125 2.359375 -4.28125 C 1.390625 -4.28125 0.65625 -3.640625 0.65625 -2.71875 C 0.65625 -2.03125 1.046875 -1.703125 1.515625 -1.5 L 1.515625 -1.453125 C 1.15625 -1.328125 0.734375 -1.15625 0.734375 -0.71875 C 0.734375 -0.453125 0.90625 -0.28125 1.0625 -0.1875 L 1.0625 -0.15625 C 0.5 0.03125 -0.015625 0.359375 -0.015625 0.9375 C -0.015625 1.46875 0.453125 2.015625 1.734375 2.015625 C 3.15625 2.015625 3.9375 1.34375 3.9375 0.578125 C 3.9375 -0.828125 1.453125 -0.359375 1.453125 -1 C 1.453125 -1.171875 1.625 -1.34375 2.09375 -1.390625 C 2.890625 -1.46875 3.859375 -1.78125 3.859375 -2.875 C 3.859375 -3.1875 3.734375 -3.546875 3.546875 -3.78125 L 3.546875 -3.8125 L 4.3125 -3.71875 Z M 3.28125 0.90625 C 3.28125 1.328125 2.765625 1.703125 1.90625 1.703125 C 1.015625 1.703125 0.671875 1.28125 0.671875 0.796875 C 0.671875 0.34375 0.984375 0.140625 1.28125 -0.046875 C 1.890625 0.078125 3.28125 0.1875 3.28125 0.90625 Z M 3.0625 -2.96875 C 3.0625 -2.234375 2.75 -1.671875 2.15625 -1.671875 C 1.640625 -1.671875 1.453125 -2.09375 1.453125 -2.71875 C 1.453125 -3.578125 1.828125 -4.015625 2.328125 -4.015625 C 2.84375 -4.015625 3.0625 -3.5625 3.0625 -2.96875 Z M 3.0625 -2.96875 "/>
</g>
<g id="glyph-0-11">
<path d="M 1.046875 -5.875 L 1 -5.609375 C 1.640625 -5.609375 1.828125 -5.5 1.703125 -4.859375 L 0.921875 -1.109375 C 0.78125 -0.390625 0.609375 -0.265625 -0.0625 -0.265625 L -0.109375 0 L 2.15625 0 C 4.4375 0 6.078125 -1.03125 6.078125 -3.5625 C 6.078125 -4.953125 5.234375 -5.875 3.375 -5.875 Z M 2.625 -5.484375 C 2.78125 -5.5 2.875 -5.515625 3.015625 -5.515625 C 4.78125 -5.515625 5.1875 -4.5625 5.1875 -3.484375 C 5.1875 -1.265625 4.078125 -0.34375 2.15625 -0.34375 C 1.921875 -0.34375 1.75 -0.34375 1.578125 -0.375 Z M 2.625 -5.484375 "/>
</g>
<g id="glyph-0-12">
<path d="M 2.78125 -2.40625 C 2.78125 -4.40625 1.84375 -5.828125 0.40625 -6.578125 L 0.265625 -6.34375 C 1.578125 -5.453125 2.0625 -4.234375 2.0625 -2.40625 C 2.0625 -0.59375 1.578125 0.640625 0.265625 1.515625 L 0.40625 1.75 C 1.84375 1 2.78125 -0.421875 2.78125 -2.40625 Z M 2.78125 -2.40625 "/>
</g>
<g id="glyph-1-0">
<path d="M 2.8125 0 L 2.8125 -0.25 C 2.25 -0.25 2.0625 -0.34375 2.0625 -0.65625 L 2.0625 -4.109375 L 1.71875 -4.109375 L 0.609375 -3.828125 L 0.609375 -3.5625 C 0.71875 -3.59375 1.03125 -3.640625 1.15625 -3.640625 C 1.34375 -3.640625 1.40625 -3.53125 1.40625 -3.3125 L 1.40625 -0.65625 C 1.40625 -0.359375 1.234375 -0.25 0.65625 -0.25 L 0.65625 0 Z M 2.8125 0 "/>
</g>
<g id="glyph-1-1">
<path d="M 0.703125 0.53125 L 2.4375 -4.8125 L 2.015625 -4.8125 L 0.265625 0.53125 Z M 0.703125 0.53125 "/>
</g>
<g id="glyph-1-2">
<path d="M 3.109375 -1.125 L 2.859375 -1.125 C 2.703125 -0.6875 2.625 -0.5625 2.265625 -0.5625 L 1.5 -0.5625 L 0.984375 -0.53125 L 0.984375 -0.578125 L 1.734375 -1.265625 C 2.421875 -1.9375 2.90625 -2.390625 2.90625 -3.015625 C 2.90625 -3.734375 2.375 -4.140625 1.609375 -4.140625 C 0.953125 -4.140625 0.53125 -3.78125 0.296875 -3.265625 L 0.484375 -3.15625 C 0.6875 -3.484375 0.984375 -3.671875 1.453125 -3.671875 C 1.953125 -3.671875 2.203125 -3.359375 2.203125 -2.96875 C 2.203125 -2.25 1.890625 -1.890625 1.140625 -1.1875 L 0.3125 -0.375 L 0.3125 0 L 2.890625 0 Z M 3.109375 -1.125 "/>
</g>
</g>
</defs>
<path fill="none" stroke-width="0.39851" stroke-linecap="round" stroke-linejoin="miter" stroke="rgb(0%, 0%, 0%)" stroke-opacity="1" stroke-miterlimit="10" d="M 19.841885 15.590674 L 258.79596 15.590674 " transform="matrix(0.997233, 0, 0, -0.997233, 2.771605, 153.242852)"/>
<path fill-rule="nonzero" fill="rgb(0%, 0%, 0%)" fill-opacity="1" d="M 262.835938 137.695312 L 259.65625 136.105469 L 260.851562 137.695312 L 259.65625 139.285156 "/>
<g fill="rgb(0%, 0%, 0%)" fill-opacity="1">
<use xlink:href="#glyph-0-0" x="266.347355" y="140.802366"/>
</g>
<path fill="none" stroke-width="0.39851" stroke-linecap="round" stroke-linejoin="miter" stroke="rgb(0%, 0%, 0%)" stroke-opacity="1" stroke-miterlimit="10" d="M 19.841885 15.590674 L 19.841885 135.488798 " transform="matrix(0.997233, 0, 0, -0.997233, 2.771605, 153.242852)"/>
<path fill-rule="nonzero" fill="rgb(0%, 0%, 0%)" fill-opacity="1" d="M 22.558594 16.144531 L 20.96875 19.320312 L 22.558594 18.128906 L 24.148438 19.320312 "/>
<g fill="rgb(0%, 0%, 0%)" fill-opacity="1">
<use xlink:href="#glyph-0-1" x="20.010777" y="12.508298"/>
</g>
<path fill="none" stroke-width="0.39851" stroke-linecap="round" stroke-linejoin="miter" stroke="rgb(0%, 0%, 0%)" stroke-opacity="1" stroke-miterlimit="10" d="M 15.873876 43.938634 L 23.809894 43.938634 " transform="matrix(0.997233, 0, 0, -0.997233, 2.771605, 153.242852)"/>
<g fill="rgb(0%, 0%, 0%)" fill-opacity="1">
<use xlink:href="#glyph-0-2" x="14.687546" y="111.600382"/>
</g>
<path fill="none" stroke-width="0.39851" stroke-linecap="round" stroke-linejoin="miter" stroke="rgb(0%, 0%, 0%)" stroke-opacity="1" stroke-miterlimit="10" d="M 15.873876 114.80266 L 23.809894 114.80266 " transform="matrix(0.997233, 0, 0, -0.997233, 2.771605, 153.242852)"/>
<g fill="rgb(0%, 0%, 0%)" fill-opacity="1">
<use xlink:href="#glyph-0-3" x="13.060061" y="41.659423"/>
</g>
<path fill="none" stroke-width="0.79703" stroke-linecap="round" stroke-linejoin="miter" stroke="rgb(0%, 0%, 0%)" stroke-opacity="1" stroke-miterlimit="10" d="M 20.550878 43.966054 C 20.550878 43.966054 20.985674 44.009142 21.150192 44.032644 C 21.318627 44.056147 21.584989 44.107069 21.753424 44.142323 C 21.917941 44.177576 22.18822 44.244167 22.352738 44.291172 C 22.521173 44.338177 22.787535 44.420436 22.952052 44.479192 C 23.120487 44.537949 23.386849 44.635876 23.555284 44.706383 C 23.719801 44.772974 23.99008 44.894403 24.154598 44.972745 C 24.323033 45.051087 24.589395 45.184268 24.75783 45.274361 C 24.922347 45.364454 25.188709 45.513303 25.357144 45.615148 C 25.521662 45.713075 25.791941 45.877592 25.956458 45.987271 C 26.124893 46.096949 26.391255 46.277135 26.55969 46.398565 C 26.724207 46.516078 26.990569 46.711932 27.159004 46.841196 C 27.323522 46.966543 27.593801 47.178065 27.758318 47.315163 C 27.926753 47.448344 28.193115 47.675535 28.36155 47.820468 C 28.526067 47.961483 28.792429 48.200425 28.960864 48.353192 C 29.125382 48.505958 29.395661 48.756652 29.560179 48.917252 C 29.728613 49.077853 29.994975 49.340298 30.16341 49.508732 C 30.327928 49.677167 30.59429 49.951363 30.762724 50.127632 C 30.931159 50.299984 31.197521 50.589848 31.362039 50.770034 C 31.530473 50.95022 31.796835 51.247919 31.96527 51.435939 C 32.129788 51.623959 32.39615 51.933409 32.564584 52.125347 C 32.733019 52.321201 32.999381 52.638485 33.163899 52.838256 C 33.332334 53.038028 33.598696 53.363146 33.76713 53.570752 C 33.931648 53.77444 34.201927 54.11131 34.366445 54.322833 C 34.534879 54.534355 34.801241 54.875142 34.965759 55.094499 C 35.134194 55.309939 35.400556 55.662476 35.56899 55.881833 C 35.733508 56.105107 36.003787 56.461562 36.168305 56.688753 C 36.33674 56.915944 36.603101 57.280233 36.771536 57.511342 C 36.936054 57.738533 37.202416 58.114573 37.370851 58.345681 C 37.535368 58.580706 37.805647 58.960664 37.970165 59.199606 C 38.1386 59.438549 38.404962 59.822423 38.573396 60.065282 C 38.737914 60.308142 39.004276 60.699851 39.172711 60.946627 C 39.337228 61.189487 39.607507 61.589029 39.772025 61.835806 C 39.94046 62.0865 40.206822 62.48996 40.375256 62.740653 C 40.539774 62.991347 40.806136 63.398724 40.974571 63.657252 C 41.139089 63.911862 41.409368 64.323156 41.573885 64.581684 C 41.74232 64.840212 42.008682 65.255423 42.177117 65.517868 C 42.341634 65.780313 42.607996 66.199441 42.776431 66.461886 C 42.940949 66.728248 43.211228 67.151293 43.375745 67.417655 C 43.54418 67.684017 43.810542 68.114897 43.978977 68.381259 C 44.143494 68.651538 44.409856 69.086334 44.578291 69.356613 C 44.742809 69.626893 45.013088 70.061689 45.177605 70.335885 C 45.34604 70.610081 45.612402 71.048795 45.780837 71.322991 C 45.945355 71.601105 46.215634 72.043735 46.380151 72.321849 C 46.548586 72.596045 46.814948 73.042593 46.979466 73.324623 C 47.1479 73.602736 47.414262 74.049284 47.582697 74.331314 C 47.747215 74.613345 48.017494 75.06381 48.182011 75.34584 C 48.350446 75.631787 48.616808 76.086169 48.781326 76.3682 C 48.949761 76.654147 49.216122 77.112446 49.384557 77.398394 C 49.549075 77.684341 49.819354 78.14264 49.983872 78.428588 C 50.152306 78.718452 50.418668 79.180668 50.583186 79.466616 C 50.751621 79.75648 51.017983 80.222614 51.186417 80.512478 C 51.350935 80.802343 51.621214 81.268476 51.785732 81.55834 C 51.954166 81.852122 52.220528 82.318255 52.388963 82.612037 C 52.553481 82.905818 52.819843 83.375869 52.988278 83.66965 C 53.152795 83.963432 53.423074 84.4374 53.587592 84.731181 C 53.756027 85.02888 54.022389 85.502847 54.190823 85.796629 C 54.355341 86.094327 54.621703 86.568295 54.790138 86.865994 C 54.954655 87.163692 55.224934 87.641577 55.389452 87.939276 C 55.557887 88.240891 55.824249 88.718776 55.992683 89.016475 C 56.157201 89.31809 56.423563 89.795975 56.591998 90.097591 C 56.756515 90.399206 57.026794 90.881008 57.191312 91.182624 C 57.359747 91.48424 57.626109 91.966041 57.794544 92.267657 C 57.959061 92.569273 58.22934 93.054992 58.393858 93.360524 C 58.562293 93.66214 58.828655 94.147859 58.993172 94.453392 C 59.161607 94.755007 59.427969 95.244643 59.596404 95.546259 C 59.760921 95.851792 60.0312 96.341428 60.195718 96.646961 C 60.364153 96.952493 60.630515 97.442129 60.795032 97.747662 C 60.963467 98.053195 61.229829 98.546748 61.398264 98.852281 C 61.562782 99.157813 61.833061 99.651366 61.997578 99.956899 C 62.166013 100.266349 62.432375 100.759902 62.596893 101.065435 C 62.765327 101.374885 63.031689 101.868438 63.200124 102.177888 C 63.364642 102.487338 63.634921 102.980891 63.799438 103.290341 C 63.967873 103.59979 64.234235 104.097261 64.398753 104.40671 C 64.567188 104.71616 64.833549 105.21363 65.001984 105.52308 C 65.166502 105.83253 65.436781 106.333917 65.601299 106.643367 C 65.769733 106.952817 66.036095 107.454204 66.200613 107.763654 C 66.369048 108.077021 66.63541 108.574491 66.803844 108.887858 C 66.968362 109.201225 67.238641 109.698695 67.403159 110.012062 C 67.571593 110.325429 68.00639 111.140183 68.00639 111.140183 " transform="matrix(0.997233, 0, 0, -0.997233, 2.771605, 153.242852)"/>
<g fill="rgb(0%, 0%, 0%)" fill-opacity="1">
<use xlink:href="#glyph-0-4" x="47.200344" y="52.886275"/>
</g>
<path fill="none" stroke-width="0.74721" stroke-linecap="round" stroke-linejoin="miter" stroke="rgb(0%, 0%, 0%)" stroke-opacity="1" stroke-miterlimit="10" d="M 26.927896 44.502695 C 26.927896 44.502695 27.895416 44.667212 28.26754 44.733803 C 28.639663 44.80431 29.23506 44.92574 29.607184 45.004082 C 29.979307 45.082424 30.574704 45.219522 30.946827 45.305698 C 31.318951 45.395791 31.914348 45.54464 32.286471 45.646484 C 32.658595 45.744411 33.253992 45.908929 33.626115 46.01469 C 33.998238 46.124369 34.593636 46.304555 34.965759 46.41815 C 35.337882 46.535663 35.937197 46.7276 36.305403 46.852947 C 36.677526 46.974377 37.27684 47.178065 37.645047 47.311246 C 38.01717 47.44051 38.616484 47.659867 38.988608 47.796965 C 39.356814 47.934063 39.956128 48.165171 40.328251 48.310104 C 40.696458 48.455036 41.295772 48.690061 41.667895 48.842827 C 42.036101 48.995594 42.635416 49.24237 43.007539 49.399054 C 43.375745 49.555737 43.97506 49.810348 44.347183 49.970949 C 44.719306 50.135466 45.314704 50.397911 45.686827 50.566346 C 46.05895 50.730864 46.654347 51.00506 47.026471 51.173494 C 47.398594 51.345846 47.993991 51.623959 48.366115 51.796311 C 48.738238 51.97258 49.333635 52.25461 49.705758 52.434796 C 50.077882 52.611065 50.673279 52.90093 51.045402 53.081116 C 51.417526 53.265219 52.012923 53.555083 52.385046 53.739187 C 52.757169 53.92329 53.352567 54.220988 53.72469 54.409008 C 54.096813 54.593112 54.69221 54.894727 55.064334 55.082747 C 55.436457 55.270768 56.031854 55.572383 56.403978 55.764321 C 56.776101 55.952341 57.371498 56.257874 57.743621 56.449811 C 58.115745 56.641748 58.711142 56.951198 59.083265 57.143135 C 59.455389 57.335073 60.050786 57.644523 60.422909 57.83646 C 60.795032 58.032314 61.39043 58.341764 61.762553 58.533701 C 62.134676 58.725639 62.730074 59.039006 63.102197 59.230943 C 63.47432 59.426797 64.069717 59.736247 64.441841 59.932102 C 64.813964 60.127956 65.409361 60.437406 65.781485 60.63326 C 66.153608 60.825197 66.749005 61.134647 67.121128 61.330502 C 67.493252 61.522439 68.088649 61.831889 68.460772 62.027743 C 68.832896 62.21968 69.428293 62.52913 69.800416 62.721068 C 70.172539 62.913005 70.767937 63.222455 71.14006 63.414392 C 71.512183 63.606329 72.107581 63.911862 72.479704 64.099882 C 72.851827 64.29182 73.447224 64.597352 73.819348 64.785373 C 74.191471 64.97731 74.786868 65.278926 75.158991 65.466946 C 75.531115 65.654966 76.130429 65.956582 76.498635 66.140685 C 76.870759 66.328705 77.466156 66.626404 77.838279 66.814424 C 78.210402 66.998527 78.809717 67.296226 79.177923 67.480329 C 79.550046 67.664432 80.149361 67.954296 80.517567 68.138399 C 80.88969 68.318585 81.489005 68.612367 81.861128 68.792553 C 82.229334 68.972739 82.828648 69.262603 83.200772 69.438872 C 83.568978 69.619058 84.168292 69.905006 84.540416 70.081275 C 84.912539 70.257544 85.507936 70.539574 85.880059 70.711926 C 86.252183 70.888195 86.84758 71.170225 87.219703 71.342577 C 87.591827 71.514929 88.187224 71.789125 88.559347 71.961477 C 88.93147 72.133828 89.526868 72.408024 89.898991 72.576459 C 90.271114 72.744894 90.866511 73.015173 91.238635 73.179691 C 91.610758 73.348125 92.206155 73.614487 92.578279 73.779005 C 92.950402 73.943523 93.545799 74.205968 93.917922 74.370485 C 94.290046 74.531086 94.885443 74.793531 95.257566 74.954131 C 95.62969 75.114732 96.225087 75.369342 96.59721 75.529943 C 96.969333 75.686627 97.564731 75.93732 97.936854 76.094004 C 98.308977 76.250687 98.904375 76.501381 99.276498 76.654147 C 99.648621 76.806913 100.244018 77.05369 100.616142 77.206456 C 100.988265 77.355306 101.583662 77.598165 101.955786 77.750932 C 102.327909 77.899781 102.923306 78.138723 103.295429 78.283655 C 103.667553 78.432505 104.26295 78.66753 104.635073 78.812462 C 105.007197 78.961311 105.602594 79.19242 105.974717 79.333435 C 106.34684 79.478367 106.942238 79.705558 107.314361 79.846573 C 107.686484 79.987588 108.281881 80.214779 108.654005 80.351877 C 109.026128 80.492893 109.621525 80.71225 109.993649 80.849348 C 110.365772 80.986446 110.961169 81.205803 111.333292 81.338983 C 111.705416 81.472164 112.300813 81.687604 112.672936 81.820785 C 113.04506 81.953966 113.640457 82.165489 114.01258 82.294753 C 114.384703 82.427934 114.980101 82.635539 115.352224 82.764803 C 115.724347 82.894067 116.319745 83.097756 116.691868 83.223102 C 117.063991 83.348449 117.659388 83.552138 118.031512 83.673567 C 118.403635 83.798914 119.002949 83.998686 119.371156 84.120115 C 119.743279 84.241545 120.342593 84.4374 120.710799 84.558829 C 121.082923 84.680259 121.682237 84.872196 122.05436 84.989709 C 122.422567 85.107221 123.021881 85.295242 123.390087 85.412754 C 123.76221 85.52635 124.361525 85.71437 124.733648 85.827965 C 125.101854 85.945478 125.701169 86.125664 126.073292 86.23926 C 126.441498 86.352855 127.040812 86.533041 127.412936 86.64272 C 127.785059 86.752398 128.380456 86.928667 128.75258 87.038345 C 129.124703 87.148024 129.7201 87.320376 130.092223 87.430054 C 130.464347 87.535816 131.059744 87.70425 131.431867 87.810012 C 131.803991 87.915773 132.399388 88.084208 132.771511 88.189969 C 133.143634 88.291813 133.739032 88.456331 134.111155 88.558175 C 134.483278 88.66002 135.078676 88.82062 135.450799 88.922464 C 135.822922 89.020392 136.418319 89.184909 136.790443 89.282836 C 137.162566 89.380764 137.757963 89.537447 138.130087 89.635374 C 138.50221 89.729384 139.097607 89.886068 139.46973 89.980078 C 139.841854 90.074088 140.437251 90.226854 140.809374 90.320865 C 141.181498 90.414875 141.776895 90.563724 142.149018 90.657734 C 142.521141 90.747827 143.116539 90.892759 143.488662 90.982852 C 143.860785 91.072945 144.456182 91.217878 144.828306 91.307971 C 145.200429 91.398064 145.795826 91.535162 146.16795 91.625255 C 146.540073 91.711431 147.13547 91.852446 147.507593 91.938622 C 147.879717 92.024798 148.475114 92.161896 148.847237 92.248072 C 149.219361 92.33033 149.814758 92.463511 150.186881 92.54577 C 150.559004 92.631946 151.154402 92.765127 151.526525 92.847386 C 151.898648 92.929645 152.494046 93.054992 152.866169 93.13725 C 153.238292 93.215592 153.833689 93.344856 154.205813 93.427115 C 154.577936 93.505457 155.173333 93.630803 155.545457 93.705228 C 155.91758 93.78357 156.512977 93.904999 156.8851 93.983341 C 157.257224 94.057766 157.852621 94.183113 158.224744 94.257537 C 158.596868 94.331962 159.192265 94.449475 159.564388 94.523899 C 159.936511 94.598324 160.531909 94.715837 160.904032 94.790261 C 161.276155 94.860769 161.87547 94.978281 162.243676 95.048789 C 162.615799 95.119297 163.215113 95.232892 163.58332 95.3034 C 163.955443 95.373907 164.554757 95.483586 164.926881 95.554093 C 165.295087 95.624601 165.894401 95.734279 166.266524 95.80087 C 166.634731 95.86746 167.234045 95.977139 167.606168 96.043729 C 167.978292 96.11032 168.573689 96.216081 168.945812 96.282671 C 169.314018 96.349262 169.913333 96.451106 170.285456 96.51378 C 170.657579 96.58037 171.252977 96.682214 171.6251 96.744888 C 171.997223 96.807561 172.59262 96.909405 172.964744 96.972079 C 173.336867 97.034752 173.932264 97.132679 174.304388 97.195353 C 174.676511 97.258026 175.271908 97.355953 175.644031 97.41471 C 176.016155 97.473466 176.611552 97.571393 176.983675 97.630149 C 177.355798 97.688906 177.951196 97.782916 178.323319 97.841672 C 178.695442 97.900428 179.29084 97.994439 179.662963 98.049278 C 180.035086 98.108034 180.630483 98.198127 181.002607 98.256883 C 181.37473 98.311723 181.970127 98.401816 182.342251 98.456655 C 182.714374 98.511494 183.309771 98.59767 183.681894 98.652509 C 184.054018 98.707348 184.649415 98.797441 185.021538 98.852281 C 185.393662 98.90712 186.361182 99.044218 186.361182 99.044218 " transform="matrix(0.997233, 0, 0, -0.997233, 2.771605, 153.242852)"/>
<path fill="none" stroke-width="0.74721" stroke-linecap="round" stroke-linejoin="miter" stroke="rgb(0%, 0%, 0%)" stroke-opacity="1" stroke-miterlimit="10" d="M 26.927896 44.079649 C 26.927896 44.079649 27.895416 44.122737 28.26754 44.138406 C 28.639663 44.157991 29.23506 44.189328 29.607184 44.208913 C 29.979307 44.228499 30.574704 44.263752 30.946827 44.287255 C 31.318951 44.310757 31.914348 44.349928 32.286471 44.373431 C 32.658595 44.40085 33.253992 44.443938 33.626115 44.475275 C 33.998238 44.502695 34.593636 44.5497 34.965759 44.581036 C 35.337882 44.612373 35.937197 44.667212 36.305403 44.698549 C 36.677526 44.733803 37.27684 44.788642 37.645047 44.827813 C 38.01717 44.863067 38.616484 44.921823 38.988608 44.960994 C 39.356814 45.000165 39.956128 45.066755 40.328251 45.105926 C 40.696458 45.149014 41.295772 45.215605 41.667895 45.26261 C 42.036101 45.305698 42.635416 45.376205 43.007539 45.42321 C 43.375745 45.470215 43.97506 45.54464 44.347183 45.595562 C 44.719306 45.642567 45.314704 45.720909 45.686827 45.771831 C 46.05895 45.822753 46.654347 45.908929 47.026471 45.959851 C 47.398594 46.01469 47.993991 46.100866 48.366115 46.155706 C 48.738238 46.210545 49.333635 46.300638 49.705758 46.359394 C 50.077882 46.414233 50.673279 46.508243 51.045402 46.570917 C 51.417526 46.629673 52.012923 46.7276 52.385046 46.786357 C 52.757169 46.84903 53.352567 46.950874 53.72469 47.013548 C 54.096813 47.076221 54.69221 47.178065 55.064334 47.244656 C 55.436457 47.307329 56.031854 47.413091 56.403978 47.483598 C 56.776101 47.550189 57.371498 47.65595 57.743621 47.726458 C 58.115745 47.793048 58.711142 47.906644 59.083265 47.977151 C 59.455389 48.047659 60.050786 48.161254 60.422909 48.235679 C 60.795032 48.306186 61.39043 48.423699 61.762553 48.498124 C 62.134676 48.568631 62.730074 48.690061 63.102197 48.764486 C 63.47432 48.83891 64.069717 48.96034 64.441841 49.038682 C 64.813964 49.113106 65.409361 49.238453 65.781485 49.316795 C 66.153608 49.395137 66.749005 49.520484 67.121128 49.598825 C 67.493252 49.681084 68.088649 49.810348 68.460772 49.88869 C 68.832896 49.970949 69.428293 50.100212 69.800416 50.182471 C 70.172539 50.26473 70.767937 50.397911 71.14006 50.48017 C 71.512183 50.562429 72.107581 50.69561 72.479704 50.777869 C 72.851827 50.864044 73.447224 51.001143 73.819348 51.083401 C 74.191471 51.169577 74.786868 51.306675 75.158991 51.392851 C 75.531115 51.479027 76.130429 51.620042 76.498635 51.706218 C 76.870759 51.792394 77.466156 51.933409 77.838279 52.023502 C 78.210402 52.109678 78.809717 52.250693 79.177923 52.340786 C 79.550046 52.430879 80.149361 52.571895 80.517567 52.661988 C 80.88969 52.752081 81.489005 52.897013 81.861128 52.987106 C 82.229334 53.077199 82.828648 53.222131 83.200772 53.316141 C 83.568978 53.406234 84.168292 53.551166 84.540416 53.645176 C 84.912539 53.735269 85.507936 53.884119 85.880059 53.974212 C 86.252183 54.068222 86.84758 54.217071 87.219703 54.311081 C 87.591827 54.401174 88.187224 54.553941 88.559347 54.647951 C 88.93147 54.741961 89.526868 54.89081 89.898991 54.98482 C 90.271114 55.07883 90.866511 55.231597 91.238635 55.325607 C 91.610758 55.419617 92.206155 55.568466 92.578279 55.662476 C 92.950402 55.760404 93.545799 55.91317 93.917922 56.00718 C 94.290046 56.10119 94.885443 56.253957 95.257566 56.351884 C 95.62969 56.445894 96.225087 56.59866 96.59721 56.696587 C 96.969333 56.790598 97.564731 56.947281 97.936854 57.041291 C 98.308977 57.139218 98.904375 57.291985 99.276498 57.389912 C 99.648621 57.483922 100.244018 57.640605 100.616142 57.734616 C 100.988265 57.832543 101.583662 57.989226 101.955786 58.083236 C 102.327909 58.181164 102.923306 58.33393 103.295429 58.431857 C 103.667553 58.529784 104.26295 58.686468 104.635073 58.780478 C 105.007197 58.878405 105.602594 59.035089 105.974717 59.133016 C 106.34684 59.227026 106.942238 59.383709 107.314361 59.481636 C 107.686484 59.579564 108.281881 59.73233 108.654005 59.830257 C 109.026128 59.928184 109.621525 60.084868 109.993649 60.178878 C 110.365772 60.276805 110.961169 60.433489 111.333292 60.527499 C 111.705416 60.625426 112.300813 60.782109 112.672936 60.880037 C 113.04506 60.977964 113.640457 61.13073 114.01258 61.228657 C 114.384703 61.326585 114.980101 61.479351 115.352224 61.577278 C 115.724347 61.675205 116.319745 61.827972 116.691868 61.925899 C 117.063991 62.019909 117.659388 62.176593 118.031512 62.27452 C 118.403635 62.36853 119.002949 62.521296 119.371156 62.619223 C 119.743279 62.717151 120.342593 62.869917 120.710799 62.967844 C 121.082923 63.061854 121.682237 63.218538 122.05436 63.312548 C 122.422567 63.406558 123.021881 63.563241 123.390087 63.657252 C 123.76221 63.751262 124.361525 63.904028 124.733648 64.001955 C 125.101854 64.095965 125.701169 64.248732 126.073292 64.342742 C 126.441498 64.440669 127.040812 64.593435 127.412936 64.687445 C 127.785059 64.781456 128.380456 64.934222 128.75258 65.028232 C 129.124703 65.122242 129.7201 65.275009 130.092223 65.369019 C 130.464347 65.463029 131.059744 65.611878 131.431867 65.705888 C 131.803991 65.799898 132.399388 65.952665 132.771511 66.042758 C 133.143634 66.136768 133.739032 66.289534 134.111155 66.379627 C 134.483278 66.473637 135.078676 66.622487 135.450799 66.716497 C 135.822922 66.80659 136.418319 66.955439 136.790443 67.049449 C 137.162566 67.143459 137.757963 67.288391 138.130087 67.382402 C 138.50221 67.472495 139.097607 67.621344 139.46973 67.711437 C 139.841854 67.805447 140.437251 67.950379 140.809374 68.044389 C 141.181498 68.134482 141.776895 68.279414 142.149018 68.369508 C 142.521141 68.463518 143.116539 68.604533 143.488662 68.694626 C 143.860785 68.788636 144.456182 68.933568 144.828306 69.023661 C 145.200429 69.113754 145.795826 69.254769 146.16795 69.344862 C 146.540073 69.434955 147.13547 69.579887 147.507593 69.666063 C 147.879717 69.756156 148.475114 69.897172 148.847237 69.987265 C 149.219361 70.077358 149.814758 70.218373 150.186881 70.304549 C 150.559004 70.394642 151.154402 70.535657 151.526525 70.621833 C 151.898648 70.711926 152.494046 70.849024 152.866169 70.939117 C 153.238292 71.025293 153.833689 71.166308 154.205813 71.252484 C 154.577936 71.33866 155.173333 71.475758 155.545457 71.561934 C 155.91758 71.64811 156.512977 71.785208 156.8851 71.871384 C 157.257224 71.957559 157.852621 72.094658 158.224744 72.180833 C 158.596868 72.267009 159.192265 72.40019 159.564388 72.486366 C 159.936511 72.572542 160.531909 72.705723 160.904032 72.791899 C 161.276155 72.874158 161.87547 73.007339 162.243676 73.093515 C 162.615799 73.175774 163.215113 73.308955 163.58332 73.39513 C 163.955443 73.477389 164.554757 73.61057 164.926881 73.692829 C 165.295087 73.775088 165.894401 73.904352 166.266524 73.986611 C 166.634731 74.068869 167.234045 74.20205 167.606168 74.284309 C 167.978292 74.366568 168.573689 74.495832 168.945812 74.578091 C 169.314018 74.656433 169.913333 74.785696 170.285456 74.867955 C 170.657579 74.946297 171.252977 75.075561 171.6251 75.15782 C 171.997223 75.236161 172.59262 75.365425 172.964744 75.443767 C 173.336867 75.522109 173.932264 75.651373 174.304388 75.729714 C 174.676511 75.808056 175.271908 75.933403 175.644031 76.011745 C 176.016155 76.090087 176.611552 76.215433 176.983675 76.293775 C 177.355798 76.372117 177.951196 76.493547 178.323319 76.571888 C 178.695442 76.65023 179.29084 76.775577 179.662963 76.850001 C 180.035086 76.928343 180.630483 77.049773 181.002607 77.128115 C 181.37473 77.202539 181.970127 77.323969 182.342251 77.398394 C 182.714374 77.472818 183.309771 77.594248 183.681894 77.668673 C 184.054018 77.747014 184.649415 77.868444 185.021538 77.942869 C 185.393662 78.017293 186.361182 78.209231 186.361182 78.209231 " transform="matrix(0.997233, 0, 0, -0.997233, 2.771605, 153.242852)"/>
<path fill="none" stroke-width="0.74721" stroke-linecap="round" stroke-linejoin="miter" stroke="rgb(0%, 0%, 0%)" stroke-opacity="1" stroke-miterlimit="10" d="M 26.927896 44.001308 C 26.927896 44.001308 27.895416 44.016976 28.26754 44.02481 C 28.639663 44.032644 29.23506 44.048313 29.607184 44.056147 C 29.979307 44.067898 30.574704 44.083566 30.946827 44.091401 C 31.318951 44.103152 31.914348 44.122737 32.286471 44.134489 C 32.658595 44.142323 33.253992 44.165825 33.626115 44.177576 C 33.998238 44.189328 34.593636 44.21283 34.965759 44.224582 C 35.337882 44.24025 35.937197 44.263752 36.305403 44.279421 C 36.677526 44.295089 37.27684 44.318592 37.645047 44.338177 C 38.01717 44.353845 38.616484 44.381265 38.988608 44.396933 C 39.356814 44.416519 39.956128 44.443938 40.328251 44.463524 C 40.696458 44.483109 41.295772 44.514446 41.667895 44.534031 C 42.036101 44.553617 42.635416 44.588871 43.007539 44.608456 C 43.375745 44.631959 43.97506 44.667212 44.347183 44.686798 C 44.719306 44.7103 45.314704 44.745554 45.686827 44.769057 C 46.05895 44.792559 46.654347 44.83173 47.026471 44.85915 C 47.398594 44.882652 47.993991 44.921823 48.366115 44.949243 C 48.738238 44.976662 49.333635 45.015833 49.705758 45.043253 C 50.077882 45.070672 50.673279 45.11376 51.045402 45.14118 C 51.417526 45.172517 52.012923 45.215605 52.385046 45.246941 C 52.757169 45.274361 53.352567 45.321366 53.72469 45.352703 C 54.096813 45.384039 54.69221 45.431044 55.064334 45.462381 C 55.436457 45.493718 56.031854 45.54464 56.403978 45.575977 C 56.776101 45.61123 57.371498 45.662153 57.743621 45.697406 C 58.115745 45.728743 58.711142 45.783582 59.083265 45.818836 C 59.455389 45.850173 60.050786 45.908929 60.422909 45.944183 C 60.795032 45.979437 61.39043 46.034276 61.762553 46.073447 C 62.134676 46.108701 62.730074 46.167457 63.102197 46.202711 C 63.47432 46.241881 64.069717 46.300638 64.441841 46.339809 C 64.813964 46.37898 65.409361 46.437736 65.781485 46.476907 C 66.153608 46.516078 66.749005 46.578751 67.121128 46.621839 C 67.493252 46.66101 68.088649 46.723683 68.460772 46.766771 C 68.832896 46.805942 69.428293 46.872533 69.800416 46.915621 C 70.172539 46.954791 70.767937 47.021382 71.14006 47.06447 C 71.512183 47.107558 72.107581 47.178065 72.479704 47.221153 C 72.851827 47.264241 73.447224 47.334749 73.819348 47.377837 C 74.191471 47.420925 74.786868 47.495349 75.158991 47.538437 C 75.531115 47.585442 76.130429 47.65595 76.498635 47.702955 C 76.870759 47.74996 77.466156 47.820468 77.838279 47.867473 C 78.210402 47.914478 78.809717 47.988902 79.177923 48.035907 C 79.550046 48.082913 80.149361 48.161254 80.517567 48.208259 C 80.88969 48.255264 81.489005 48.333606 81.861128 48.384528 C 82.229334 48.431533 82.828648 48.509875 83.200772 48.560797 C 83.568978 48.607802 84.168292 48.690061 84.540416 48.737066 C 84.912539 48.787988 85.507936 48.870247 85.880059 48.921169 C 86.252183 48.972091 86.84758 49.050433 87.219703 49.105272 C 87.591827 49.156194 88.187224 49.238453 88.559347 49.289375 C 88.93147 49.340298 89.526868 49.426473 89.898991 49.477396 C 90.271114 49.532235 90.866511 49.614494 91.238635 49.669333 C 91.610758 49.720255 92.206155 49.806431 92.578279 49.86127 C 92.950402 49.912192 93.545799 49.998368 93.917922 50.053207 C 94.290046 50.108047 94.885443 50.19814 95.257566 50.252979 C 95.62969 50.307818 96.225087 50.393994 96.59721 50.448833 C 96.969333 50.503672 97.564731 50.593765 97.936854 50.648605 C 98.308977 50.707361 98.904375 50.793537 99.276498 50.852293 C 99.648621 50.907132 100.244018 50.997225 100.616142 51.055982 C 100.988265 51.110821 101.583662 51.204831 101.955786 51.25967 C 102.327909 51.318427 102.923306 51.40852 103.295429 51.467276 C 103.667553 51.526032 104.26295 51.616125 104.635073 51.674882 C 105.007197 51.733638 105.602594 51.827648 105.974717 51.886404 C 106.34684 51.945161 106.942238 52.039171 107.314361 52.097927 C 107.686484 52.156683 108.281881 52.250693 108.654005 52.30945 C 109.026128 52.368206 109.621525 52.462216 109.993649 52.524889 C 110.365772 52.583646 110.961169 52.677656 111.333292 52.740329 C 111.705416 52.799086 112.300813 52.897013 112.672936 52.955769 C 113.04506 53.014525 113.640457 53.112453 114.01258 53.171209 C 114.384703 53.233882 114.980101 53.331809 115.352224 53.390566 C 115.724347 53.453239 116.319745 53.551166 116.691868 53.61384 C 117.063991 53.672596 117.659388 53.770523 118.031512 53.833197 C 118.403635 53.89587 119.002949 53.993797 119.371156 54.056471 C 119.743279 54.115227 120.342593 54.217071 120.710799 54.279745 C 121.082923 54.338501 121.682237 54.440345 122.05436 54.503019 C 122.422567 54.565692 123.021881 54.663619 123.390087 54.726293 C 123.76221 54.788966 124.361525 54.89081 124.733648 54.949567 C 125.101854 55.01224 125.701169 55.114084 126.073292 55.176758 C 126.441498 55.239431 127.040812 55.341275 127.412936 55.403949 C 127.785059 55.466622 128.380456 55.568466 128.75258 55.63114 C 129.124703 55.693813 129.7201 55.795657 130.092223 55.858331 C 130.464347 55.924921 131.059744 56.026766 131.431867 56.089439 C 131.803991 56.152112 132.399388 56.253957 132.771511 56.31663 C 133.143634 56.38322 133.739032 56.485065 134.111155 56.547738 C 134.483278 56.610412 135.078676 56.712256 135.450799 56.778846 C 135.822922 56.84152 136.418319 56.943364 136.790443 57.009954 C 137.162566 57.072628 137.757963 57.174472 138.130087 57.241063 C 138.50221 57.303736 139.097607 57.40558 139.46973 57.472171 C 139.841854 57.534844 140.437251 57.636688 140.809374 57.703279 C 141.181498 57.765952 141.776895 57.871714 142.149018 57.934387 C 142.521141 58.000977 143.116539 58.102822 143.488662 58.165495 C 143.860785 58.232086 144.456182 58.33393 144.828306 58.40052 C 145.200429 58.463194 145.795826 58.565038 146.16795 58.631629 C 146.540073 58.694302 147.13547 58.800063 147.507593 58.862737 C 147.879717 58.929327 148.475114 59.035089 148.847237 59.097762 C 149.219361 59.160435 149.814758 59.266197 150.186881 59.32887 C 150.559004 59.395461 151.154402 59.497305 151.526525 59.563895 C 151.898648 59.626569 152.494046 59.73233 152.866169 59.795003 C 153.238292 59.861594 153.833689 59.963438 154.205813 60.030029 C 154.577936 60.092702 155.173333 60.198463 155.545457 60.261137 C 155.91758 60.327727 156.512977 60.429572 156.8851 60.496162 C 157.257224 60.558835 157.852621 60.664597 158.224744 60.72727 C 158.596868 60.793861 159.192265 60.895705 159.564388 60.962295 C 159.936511 61.024969 160.531909 61.13073 160.904032 61.193404 C 161.276155 61.259994 161.87547 61.361838 162.243676 61.428429 C 162.615799 61.491102 163.215113 61.592947 163.58332 61.659537 C 163.955443 61.72221 164.554757 61.827972 164.926881 61.890645 C 165.295087 61.957236 165.894401 62.05908 166.266524 62.121753 C 166.634731 62.188344 167.234045 62.290188 167.606168 62.356779 C 167.978292 62.419452 168.573689 62.521296 168.945812 62.587887 C 169.314018 62.65056 169.913333 62.752404 170.285456 62.818995 C 170.657579 62.881668 171.252977 62.983513 171.6251 63.050103 C 171.997223 63.112776 172.59262 63.214621 172.964744 63.277294 C 173.336867 63.343885 173.932264 63.445729 174.304388 63.508402 C 174.676511 63.571076 175.271908 63.676837 175.644031 63.73951 C 176.016155 63.802184 176.611552 63.904028 176.983675 63.966701 C 177.355798 64.033292 177.951196 64.135136 178.323319 64.19781 C 178.695442 64.260483 179.29084 64.362327 179.662963 64.425001 C 180.035086 64.487674 180.630483 64.589518 181.002607 64.652192 C 181.37473 64.718782 181.970127 64.816709 182.342251 64.879383 C 182.714374 64.945973 183.309771 65.0439 183.681894 65.106574 C 184.054018 65.173164 184.649415 65.271091 185.021538 65.337682 C 185.393662 65.400355 186.361182 65.560956 186.361182 65.560956 " transform="matrix(0.997233, 0, 0, -0.997233, 2.771605, 153.242852)"/>
<g fill="rgb(0%, 0%, 0%)" fill-opacity="1">
<use xlink:href="#glyph-0-5" x="86.775549" y="66.490533"/>
</g>
<g fill="rgb(0%, 0%, 0%)" fill-opacity="1">
<use xlink:href="#glyph-0-6" x="95.256021" y="79.23318"/>
</g>
<g fill="rgb(0%, 0%, 0%)" fill-opacity="1">
<use xlink:href="#glyph-0-7" x="103.736493" y="88.786675"/>
</g>
<g fill="rgb(0%, 0%, 0%)" fill-opacity="1">
<use xlink:href="#glyph-0-1" x="50.097307" y="26.778707"/>
</g>
<g fill="rgb(0%, 0%, 0%)" fill-opacity="1">
<use xlink:href="#glyph-0-8" x="57.670819" y="26.778707"/>
</g>
<g fill="rgb(0%, 0%, 0%)" fill-opacity="1">
<use xlink:href="#glyph-0-9" x="66.594509" y="26.778707"/>
<use xlink:href="#glyph-0-10" x="69.786651" y="26.778707"/>
<use xlink:href="#glyph-0-11" x="74.284262" y="26.778707"/>
</g>
<g fill="rgb(0%, 0%, 0%)" fill-opacity="1">
<use xlink:href="#glyph-0-12" x="80.740078" y="26.778707"/>
</g>
<g fill="rgb(0%, 0%, 0%)" fill-opacity="1">
<use xlink:href="#glyph-1-0" x="83.936426" y="23.559637"/>
<use xlink:href="#glyph-1-1" x="87.28057" y="23.559637"/>
<use xlink:href="#glyph-1-2" x="89.986883" y="23.559637"/>
</g>
<g fill="rgb(0%, 0%, 0%)" fill-opacity="1">
<use xlink:href="#glyph-0-0" x="93.677401" y="26.778707"/>
</g>
</svg>
