<?xml version="1.0" encoding="UTF-8"?>
<!-- wave-generated-sha256: 983f05cdd1491449 -->
<svg xmlns="http://www.w3.org/2000/svg" xmlns:xlink="http://www.w3.org/1999/xlink" width="274.514pt" height="121.754pt" viewBox="0 0 274.514 121.754">
<defs>
<g>
<g id="glyph-0-0">
<path d="M 4.953125 -2.765625 C 4.953125 -3.6875 4.40625 -4.296875 3.40625 -4.328125 L 3.90625 -6.1875 L 3.859375 -6.21875 L 3.109375 -6.203125 L 2.796875 -4.296875 C 1.328125 -4.0625 0.296875 -2.984375 0.296875 -1.484375 C 0.296875 -0.578125 0.953125 0.015625 1.875 0.078125 L 1.375 1.921875 L 1.5 1.9375 C 2.140625 1.9375 2.328125 1.578125 2.484375 0.0625 C 3.859375 -0.109375 4.953125 -1.15625 4.953125 -2.765625 Z M 0.71875 -1.75 C 0.71875 -2.984375 1.703125 -3.46875 2.6875 -3.578125 L 2.078125 -0.6875 C 1.46875 -0.703125 0.71875 -0.96875 0.71875 -1.75 Z M 4.546875 -2.46875 C 4.546875 -1.3125 3.5625 -0.8125 2.609375 -0.703125 L 3.203125 -3.59375 C 4.046875 -3.515625 4.546875 -3.109375 4.546875 -2.46875 Z M 4.546875 -2.46875 "/>
</g>
<g id="glyph-0-1">
<path d="M 5.890625 -2.921875 L 5.890625 -3.53125 L 0.5625 -3.53125 L 0.5625 -2.921875 Z M 5.890625 -1.09375 L 5.890625 -1.703125 L 0.5625 -1.703125 L 0.5625 -1.09375 Z M 5.890625 -1.09375 "/>
</g>
<g id="glyph-0-2">
<path d="M 4.1875 -2.84375 C 4.1875 -4.6875 3.390625 -5.75 2.234375 -5.75 C 0.9375 -5.75 0.234375 -4.5625 0.234375 -2.859375 C 0.234375 -1.28125 0.765625 0.09375 2.21875 0.09375 C 3.609375 0.09375 4.1875 -1.3125 4.1875 -2.84375 Z M 3.328125 -2.78125 C 3.328125 -1.0625 2.921875 -0.21875 2.21875 -0.21875 C 1.5 -0.21875 1.09375 -1.078125 1.09375 -2.8125 C 1.09375 -4.59375 1.5 -5.4375 2.203125 -5.4375 C 2.9375 -5.4375 3.328125 -4.609375 3.328125 -2.78125 Z M 3.328125 -2.78125 "/>
</g>
<g id="glyph-0-3">
<path d="M 5.078125 -4.234375 C 4.765625 -4.21875 4.375 -4.203125 3.96875 -4.203125 C 3.53125 -4.203125 3.09375 -4.21875 2.6875 -4.21875 C 1.25 -4.21875 0.359375 -3.140625 0.359375 -1.484375 C 0.359375 -0.828125 0.609375 0.125 1.734375 0.125 C 3.015625 0.125 3.953125 -0.78125 3.96875 -2.203125 C 3.96875 -2.78125 3.6875 -3.234375 3.578125 -3.40625 C 3.5625 -3.421875 3.5625 -3.421875 3.546875 -3.4375 L 3.546875 -3.46875 C 3.78125 -3.46875 3.90625 -3.46875 4.125 -3.46875 C 4.796875 -3.46875 5.046875 -3.84375 5.109375 -4.109375 Z M 3.21875 -3.484375 C 3.359375 -3.171875 3.46875 -2.859375 3.46875 -2.40625 C 3.46875 -1.03125 2.609375 -0.625 1.859375 -0.625 C 1.28125 -0.625 0.796875 -0.9375 0.8125 -1.71875 C 0.8125 -2.96875 1.703125 -3.5 2.5625 -3.5 C 2.78125 -3.5 3 -3.484375 3.21875 -3.484375 Z M 3.21875 -3.484375 "/>
</g>
<g id="glyph-0-4">
<path d="M 7.015625 -5.875 L 4.890625 -5.875 L 4.84375 -5.609375 C 5.21875 -5.609375 5.390625 -5.5625 5.5 -5.390625 C 5.578125 -5.234375 5.578125 -5 5.46875 -4.453125 L 4.859375 -1.484375 L 4.8125 -1.484375 L 2.390625 -5.875 L 0.984375 -5.875 L 0.9375 -5.609375 C 1.3125 -5.609375 1.46875 -5.53125 1.671875 -5.203125 L 0.875 -1.328125 C 0.703125 -0.4375 0.5625 -0.265625 -0.140625 -0.265625 L -0.1875 0 L 1.875 0 L 1.921875 -0.265625 C 1.25 -0.265625 1.140625 -0.4375 1.3125 -1.328125 L 2.015625 -4.734375 L 2.0625 -4.734375 L 4.6875 0.078125 L 4.984375 0.078125 L 5.90625 -4.40625 C 6.046875 -5.109375 6.1875 -5.296875 6.359375 -5.4375 C 6.484375 -5.546875 6.640625 -5.609375 6.953125 -5.609375 Z M 7.015625 -5.875 "/>
</g>
<g id="glyph-0-5">
<path d="M 1.453125 1.96875 L 1.453125 -6.328125 L 0.9375 -6.328125 L 0.9375 1.96875 Z M 1.453125 1.96875 "/>
</g>
<g id="glyph-0-6">
<path d="M -0.03125 -6.421875 L -1.296875 -7.546875 L -1.453125 -7.375 L -1.140625 -7.046875 C -1 -6.90625 -0.90625 -6.828125 -0.90625 -6.703125 C -0.90625 -6.59375 -1 -6.578125 -1.140625 -6.578125 L -3.921875 -6.578125 L -3.921875 -6.15625 L -1.140625 -6.15625 C -1 -6.15625 -0.90625 -6.140625 -0.90625 -6.046875 C -0.90625 -5.921875 -1 -5.84375 -1.140625 -5.6875 L -1.453125 -5.375 L -1.296875 -5.1875 L -0.03125 -6.3125 Z M -0.03125 -6.421875 "/>
</g>
<g id="glyph-0-7">
<path d="M 3.203125 -1.09375 C 2.921875 -0.765625 2.578125 -0.515625 1.953125 -0.515625 C 1.4375 -0.515625 0.96875 -0.6875 0.96875 -1.640625 C 0.96875 -2.6875 1.515625 -4 2.5 -4 C 2.796875 -4 2.953125 -3.890625 2.953125 -3.75 C 2.953125 -3.609375 2.78125 -3.359375 2.78125 -3.125 C 2.78125 -2.921875 2.90625 -2.8125 3.109375 -2.8125 C 3.453125 -2.8125 3.609375 -3.09375 3.609375 -3.453125 C 3.609375 -4.03125 3.15625 -4.28125 2.59375 -4.28125 C 1.3125 -4.28125 0.234375 -3 0.234375 -1.515625 C 0.234375 -0.609375 0.640625 0.109375 1.609375 0.109375 C 2.40625 0.109375 2.984375 -0.390625 3.359375 -0.96875 Z M 3.203125 -1.09375 "/>
</g>
<g id="glyph-0-8">
<path d="M 3.609375 0 L 3.890625 -1.234375 C 4.21875 -2.046875 5.25 -3.640625 5.8125 -3.640625 C 6.015625 -3.640625 6.078125 -3.484375 6.078125 -3.28125 C 6.078125 -3.09375 6 -2.75 5.9375 -2.53125 L 5.484375 -0.78125 C 5.46875 -0.75 5.4375 -0.578125 5.4375 -0.4375 C 5.4375 -0.171875 5.5625 0.09375 6.03125 0.09375 C 6.65625 0.09375 7.015625 -0.53125 7.25 -0.875 L 7.078125 -1 C 6.9375 -0.828125 6.71875 -0.53125 6.40625 -0.53125 C 6.28125 -0.53125 6.234375 -0.609375 6.234375 -0.703125 C 6.234375 -0.8125 6.265625 -0.921875 6.265625 -0.921875 L 6.75 -2.984375 C 6.78125 -3.109375 6.84375 -3.421875 6.84375 -3.65625 C 6.84375 -3.96875 6.71875 -4.28125 6.265625 -4.28125 C 5.34375 -4.28125 4.609375 -3.09375 4.21875 -2.421875 L 4.140625 -2.421875 L 4.296875 -2.984375 C 4.3125 -3.03125 4.375 -3.390625 4.375 -3.65625 C 4.375 -3.96875 4.265625 -4.28125 3.8125 -4.28125 C 2.796875 -4.28125 2.03125 -3.03125 1.65625 -2.3125 L 1.578125 -2.3125 L 2.03125 -4.265625 L 1.828125 -4.265625 L 0.59375 -4.15625 L 0.59375 -3.921875 C 0.59375 -3.921875 0.765625 -3.9375 0.875 -3.9375 C 1.09375 -3.9375 1.15625 -3.84375 1.15625 -3.703125 C 1.15625 -3.5625 1.140625 -3.40625 1.140625 -3.40625 L 0.421875 0 L 1.15625 0 L 1.4375 -1.234375 C 1.875 -2.234375 2.765625 -3.640625 3.359375 -3.640625 C 3.5625 -3.640625 3.625 -3.484375 3.625 -3.28125 C 3.625 -3.140625 3.578125 -2.9375 3.578125 -2.90625 C 3.359375 -1.921875 3.125 -0.953125 2.859375 0 Z M 3.609375 0 "/>
</g>
<g id="glyph-0-9">
<path d="M 0.765625 0.109375 C 2.734375 0.09375 4.03125 -1.03125 4.03125 -3.34375 C 4.03125 -4.671875 3.484375 -5.78125 2.15625 -5.78125 C 1.015625 -5.78125 0.34375 -5.078125 0.34375 -3.875 C 0.34375 -2.6875 0.984375 -1.984375 1.953125 -1.984375 C 2.40625 -1.984375 2.734375 -2.171875 3.140625 -2.546875 L 3.1875 -2.53125 C 2.984375 -1.078125 1.984375 -0.28125 0.75 -0.140625 Z M 1.125 -3.921875 C 1.125 -5.0625 1.53125 -5.484375 2.109375 -5.484375 C 2.90625 -5.484375 3.21875 -4.6875 3.21875 -3.5625 C 3.21875 -2.796875 2.75 -2.515625 2.234375 -2.515625 C 1.484375 -2.515625 1.125 -3.09375 1.125 -3.921875 Z M 1.125 -3.921875 "/>
</g>
<g id="glyph-0-10">
<path d="M 1.703125 -4.1875 L 1.671875 -3.8125 L 2.421875 -3.8125 L 1.828125 -0.328125 C 1.734375 0.265625 1.5 1.734375 1.03125 1.734375 C 0.6875 1.734375 0.984375 0.9375 0.453125 0.9375 C 0.21875 0.9375 0.09375 1.125 0.09375 1.375 C 0.09375 1.6875 0.3125 2.015625 0.890625 2.015625 C 2.109375 2.015625 2.53125 0.015625 2.65625 -0.765625 L 3.15625 -3.8125 L 4 -3.8125 L 4.0625 -4.1875 L 3.203125 -4.1875 L 3.3125 -4.8125 C 3.453125 -5.578125 3.671875 -6.109375 4.125 -6.109375 C 4.34375 -6.109375 4.359375 -5.890625 4.390625 -5.671875 C 4.421875 -5.484375 4.515625 -5.3125 4.75 -5.3125 C 4.9375 -5.3125 5.109375 -5.453125 5.109375 -5.71875 C 5.109375 -6.09375 4.8125 -6.359375 4.265625 -6.359375 C 3.484375 -6.359375 3.125 -5.953125 2.890625 -5.53125 C 2.6875 -5.171875 2.578125 -4.6875 2.46875 -4.1875 Z M 1.703125 -4.1875 "/>
</g>
<g id="glyph-0-11">
<path d="M 2.296875 -6.3125 L 2.09375 -6.3125 L 0.859375 -6.21875 L 0.859375 -5.984375 C 0.859375 -5.984375 1.03125 -6 1.140625 -6 C 1.359375 -6 1.453125 -5.921875 1.453125 -5.71875 C 1.453125 -5.59375 1.421875 -5.4375 1.421875 -5.4375 L 0.359375 0 L 1.09375 0 L 1.421875 -1.640625 L 1.9375 -2.109375 L 2.546875 -0.609375 C 2.6875 -0.28125 2.84375 0.09375 3.296875 0.09375 C 4 0.09375 4.453125 -0.75 4.546875 -0.90625 L 4.34375 -1.03125 C 4.15625 -0.765625 3.953125 -0.515625 3.640625 -0.515625 C 3.375 -0.515625 3.28125 -0.703125 3.15625 -1 L 2.5 -2.546875 L 3.484375 -3.421875 C 3.78125 -3.6875 4.0625 -3.9375 4.671875 -3.953125 L 4.703125 -4.1875 L 2.78125 -4.1875 L 2.75 -3.953125 C 2.96875 -3.953125 3.15625 -3.90625 3.15625 -3.71875 C 3.15625 -3.59375 3.0625 -3.5 2.9375 -3.390625 L 1.546875 -2.125 L 1.5 -2.125 Z M 2.296875 -6.3125 "/>
</g>
<g id="glyph-0-12">
<path d="M 0.15625 -2.234375 L 0.203125 -1.984375 C 0.40625 -2.015625 0.671875 -2.078125 0.9375 -2.140625 C 0.796875 -1.734375 0.6875 -1.328125 0.6875 -1 C 0.6875 -0.09375 1.1875 0.09375 1.625 0.09375 C 2.28125 0.09375 2.734375 -0.421875 3.453125 -1.546875 L 3.234375 -1.703125 C 2.5625 -0.71875 2.203125 -0.265625 1.75 -0.265625 C 1.453125 -0.265625 1.3125 -0.5625 1.3125 -0.875 C 1.3125 -1.328125 1.484375 -1.828125 1.6875 -2.359375 C 3.0625 -2.796875 4.5625 -3.609375 4.5625 -5.125 C 4.5625 -5.65625 4.28125 -6 3.765625 -6 C 2.671875 -6 1.6875 -4.109375 1.046875 -2.4375 C 0.734375 -2.34375 0.4375 -2.28125 0.15625 -2.234375 Z M 3.703125 -5.59375 C 3.9375 -5.59375 4.125 -5.46875 4.125 -5.03125 C 4.125 -3.828125 3.015625 -3.109375 1.8125 -2.671875 L 2.046875 -3.234375 C 2.296875 -3.890625 2.984375 -5.59375 3.703125 -5.59375 Z M 3.703125 -5.59375 "/>
</g>
<g id="glyph-1-0">
<path d="M 2.71875 -1.625 C 2.71875 -2.34375 2.171875 -2.796875 1.546875 -2.796875 C 0.875 -2.796875 0.375 -2.34375 0.375 -1.625 C 0.375 -0.890625 0.859375 -0.453125 1.546875 -0.453125 C 2.21875 -0.453125 2.71875 -0.90625 2.71875 -1.625 Z M 2.25 -1.625 C 2.25 -1.125 1.953125 -0.859375 1.546875 -0.859375 C 1.140625 -0.859375 0.84375 -1.125 0.84375 -1.625 C 0.84375 -2.109375 1.15625 -2.390625 1.546875 -2.390625 C 1.953125 -2.390625 2.25 -2.109375 2.25 -1.625 Z M 2.25 -1.625 "/>
</g>
<g id="glyph-1-1">
<path d="M 3.640625 -3.078125 L 2.71875 -3.078125 C 2.5625 -3.203125 2.28125 -3.28125 1.953125 -3.28125 C 1.171875 -3.28125 0.578125 -2.84375 0.578125 -2.125 C 0.578125 -1.5625 0.90625 -1.328125 1.234375 -1.21875 L 1.234375 -1.15625 C 0.953125 -1.0625 0.65625 -0.90625 0.65625 -0.5625 C 0.65625 -0.421875 0.734375 -0.296875 0.859375 -0.203125 L 0.859375 -0.15625 C 0.4375 -0.03125 0.0625 0.1875 0.0625 0.59375 C 0.0625 1.109375 0.5 1.390625 1.5625 1.390625 C 2.625 1.390625 3.203125 0.9375 3.203125 0.359375 C 3.203125 -0.65625 1.28125 -0.359375 1.28125 -0.796875 C 1.28125 -0.96875 1.453125 -1.109375 1.734375 -1.109375 C 2.6875 -1.109375 3.15625 -1.609375 3.15625 -2.1875 C 3.15625 -2.359375 3.109375 -2.5 3.03125 -2.65625 L 3.03125 -2.703125 L 3.609375 -2.703125 Z M 2.65625 0.625 C 2.65625 0.90625 2.296875 1.109375 1.609375 1.109375 C 0.90625 1.109375 0.65625 0.890625 0.65625 0.5625 C 0.65625 0.1875 0.828125 0.078125 1.046875 -0.078125 C 1.546875 0.03125 2.65625 0.140625 2.65625 0.625 Z M 2.46875 -2.234375 C 2.46875 -1.796875 2.28125 -1.34375 1.78125 -1.34375 C 1.359375 -1.34375 1.25 -1.703125 1.25 -2.203125 C 1.25 -2.765625 1.5 -3.03125 1.921875 -3.03125 C 2.296875 -3.03125 2.46875 -2.640625 2.46875 -2.234375 Z M 2.46875 -2.234375 "/>
</g>
<g id="glyph-2-0">
<path d="M 2.796875 1.421875 C 1.484375 0.5625 1 -0.65625 1 -2.453125 C 1 -4.234375 1.484375 -5.4375 2.796875 -6.296875 L 2.65625 -6.53125 C 1.203125 -5.796875 0.265625 -4.40625 0.265625 -2.453125 C 0.265625 -0.484375 1.203125 0.921875 2.65625 1.671875 Z M 2.796875 1.421875 "/>
</g>
<g id="glyph-2-1">
<path d="M 1.234375 -6.328125 L 0.078125 -6 L 0.078125 -5.75 C 0.078125 -5.75 0.171875 -5.78125 0.328125 -5.78125 C 0.65625 -5.78125 0.71875 -5.703125 0.71875 -5.296875 L 0.71875 -0.265625 C 0.9375 -0.15625 1.453125 0.09375 2.21875 0.09375 C 3.453125 0.09375 4.359375 -0.75 4.359375 -2.359375 C 4.359375 -3.515625 3.75 -4.34375 2.859375 -4.34375 C 2.265625 -4.34375 1.796875 -3.953125 1.484375 -3.578125 L 1.453125 -3.578125 L 1.453125 -6.328125 Z M 1.453125 -3.1875 C 1.625 -3.40625 2.015625 -3.734375 2.46875 -3.734375 C 3.328125 -3.734375 3.546875 -2.921875 3.546875 -2.0625 C 3.546875 -1.078125 3.21875 -0.28125 2.375 -0.28125 C 1.890625 -0.28125 1.625 -0.5 1.453125 -0.703125 Z M 1.453125 -3.1875 "/>
</g>
<g id="glyph-2-2">
<path d="M 1.984375 0.09375 C 2.5625 0.09375 2.984375 -0.171875 3.453125 -0.640625 L 3.5 -0.640625 L 3.5 0.046875 L 3.703125 0.046875 L 4.828125 -0.15625 L 4.828125 -0.40625 L 4.75 -0.40625 C 4.3125 -0.40625 4.203125 -0.46875 4.203125 -1 L 4.203125 -4.28125 L 4 -4.28125 L 2.734375 -4.140625 L 2.734375 -3.890625 C 3.3125 -3.890625 3.46875 -3.84375 3.46875 -3.375 L 3.46875 -1.015625 C 3.109375 -0.703125 2.8125 -0.484375 2.359375 -0.484375 C 1.890625 -0.484375 1.5625 -0.75 1.5625 -1.671875 L 1.5625 -4.28125 L 1.359375 -4.28125 L 0.203125 -4.140625 L 0.203125 -3.890625 C 0.6875 -3.890625 0.8125 -3.84375 0.8125 -3.359375 L 0.8125 -1.546875 C 0.8125 -0.328125 1.25 0.09375 1.984375 0.09375 Z M 1.984375 0.09375 "/>
</g>
<g id="glyph-2-3">
<path d="M 2.3125 0.09375 C 3.46875 0.09375 4.296875 -0.703125 4.296875 -2.203125 C 4.296875 -3.53125 3.53125 -4.34375 2.3125 -4.34375 C 1.09375 -4.34375 0.296875 -3.46875 0.296875 -2.171875 C 0.296875 -0.71875 1.0625 0.09375 2.3125 0.09375 Z M 2.34375 -0.265625 C 1.578125 -0.265625 1.140625 -0.859375 1.140625 -2.28125 C 1.140625 -3.421875 1.59375 -4 2.28125 -4 C 3.078125 -4 3.46875 -3.265625 3.46875 -2.15625 C 3.46875 -0.703125 3.078125 -0.265625 2.34375 -0.265625 Z M 2.34375 -0.265625 "/>
</g>
<g id="glyph-2-4">
<path d="M 0.6875 2.109375 C 1.453125 2.109375 1.875 1.5625 2.40625 0.203125 L 3.796875 -3.46875 C 3.921875 -3.828125 4.0625 -3.96875 4.40625 -3.96875 L 4.40625 -4.234375 L 2.890625 -4.234375 L 2.890625 -3.96875 C 3.1875 -3.96875 3.390625 -3.9375 3.390625 -3.75 C 3.390625 -3.6875 3.359375 -3.59375 3.34375 -3.53125 L 2.484375 -0.9375 L 2.421875 -0.9375 L 2.296875 -1.375 L 1.421875 -3.34375 C 1.375 -3.46875 1.296875 -3.609375 1.296875 -3.734375 C 1.296875 -3.890625 1.40625 -3.96875 1.8125 -3.96875 L 1.8125 -4.234375 L -0.109375 -4.234375 L -0.109375 -3.96875 C 0.21875 -3.96875 0.34375 -3.859375 0.4375 -3.65625 L 1.75 -0.78125 C 1.859375 -0.53125 2.015625 -0.15625 2.015625 -0.046875 C 2.015625 0.21875 1.484375 1.453125 1.15625 1.453125 C 1.03125 1.453125 0.765625 1.25 0.46875 1.25 C 0.234375 1.25 0.046875 1.375 0.046875 1.640625 C 0.046875 1.984375 0.328125 2.109375 0.6875 2.109375 Z M 0.6875 2.109375 "/>
</g>
<g id="glyph-2-5">
<path d="M 1.40625 0.0625 C 1.984375 0.0625 2.296875 -0.1875 2.71875 -0.5625 L 2.75 -0.5625 C 2.8125 -0.15625 2.90625 0.046875 3.296875 0.046875 C 3.75 0.046875 3.96875 -0.140625 4.265625 -0.578125 L 4.125 -0.71875 C 4 -0.578125 3.875 -0.5 3.703125 -0.5 C 3.515625 -0.5 3.4375 -0.5625 3.4375 -0.9375 L 3.4375 -2.96875 C 3.4375 -3.890625 3.078125 -4.34375 2.09375 -4.34375 C 1.125 -4.34375 0.515625 -3.859375 0.515625 -3.359375 C 0.515625 -3.0625 0.71875 -2.921875 0.890625 -2.921875 C 1.140625 -2.921875 1.296875 -3.0625 1.296875 -3.34375 C 1.296875 -3.875 1.375 -4.0625 1.890625 -4.0625 C 2.421875 -4.0625 2.6875 -3.765625 2.6875 -2.984375 L 2.6875 -2.59375 C 1.921875 -2.359375 0.34375 -2.125 0.34375 -0.9375 C 0.34375 -0.359375 0.71875 0.0625 1.40625 0.0625 Z M 2.6875 -0.828125 C 2.390625 -0.578125 2.0625 -0.4375 1.765625 -0.4375 C 1.390625 -0.4375 1.125 -0.703125 1.125 -1.15625 C 1.125 -1.859375 1.875 -2.09375 2.6875 -2.296875 Z M 2.6875 -0.828125 "/>
</g>
<g id="glyph-2-6">
<path d="M 4.96875 0 L 4.96875 -0.25 C 4.375 -0.25 4.3125 -0.40625 4.3125 -0.90625 L 4.3125 -2.75 C 4.3125 -3.78125 3.921875 -4.34375 3.109375 -4.34375 C 2.546875 -4.34375 2.15625 -4.015625 1.671875 -3.59375 L 1.625 -3.59375 L 1.640625 -4.3125 L 1.4375 -4.3125 L 0.296875 -4.0625 L 0.296875 -3.796875 C 0.296875 -3.796875 0.390625 -3.8125 0.53125 -3.8125 C 0.78125 -3.8125 0.90625 -3.75 0.90625 -3.421875 L 0.90625 -0.90625 C 0.90625 -0.40625 0.890625 -0.25 0.28125 -0.25 L 0.28125 0 L 2.34375 0 L 2.34375 -0.25 C 1.6875 -0.25 1.65625 -0.40625 1.65625 -0.90625 L 1.65625 -3.203125 C 1.921875 -3.453125 2.25 -3.765625 2.734375 -3.765625 C 3.140625 -3.765625 3.5625 -3.59375 3.5625 -2.53125 L 3.5625 -0.90625 C 3.5625 -0.40625 3.53125 -0.25 2.90625 -0.25 L 2.90625 0 Z M 4.96875 0 "/>
</g>
<g id="glyph-2-7">
<path d="M 3.65625 -1.328125 C 3.25 -0.8125 2.953125 -0.578125 2.359375 -0.578125 C 1.4375 -0.578125 1 -1.359375 1 -2.4375 C 1 -3.46875 1.4375 -4.015625 2.171875 -4.015625 C 2.9375 -4.015625 2.640625 -2.984375 3.296875 -2.984375 C 3.546875 -2.984375 3.6875 -3.140625 3.6875 -3.390625 C 3.6875 -3.90625 3.15625 -4.34375 2.3125 -4.34375 C 1.03125 -4.34375 0.296875 -3.421875 0.296875 -2.015625 C 0.296875 -0.78125 0.96875 0.09375 2.09375 0.09375 C 3.046875 0.09375 3.484375 -0.46875 3.828125 -1.203125 Z M 3.65625 -1.328125 "/>
</g>
<g id="glyph-2-8">
<path d="M 0.375 0.078125 L 0.5625 0.078125 L 0.75 -0.140625 L 0.765625 -0.140625 C 1 -0.03125 1.265625 0.09375 1.796875 0.09375 C 2.59375 0.09375 3.296875 -0.21875 3.296875 -1.0625 C 3.296875 -1.734375 2.859375 -2.0625 2.046875 -2.484375 C 1.296875 -2.875 1 -3.09375 1 -3.453125 C 1 -3.84375 1.3125 -4.03125 1.71875 -4.03125 C 2.265625 -4.03125 2.59375 -3.78125 2.796875 -2.921875 L 3.03125 -2.921875 L 3.015625 -4.296875 L 2.828125 -4.296875 L 2.671875 -4.109375 C 2.4375 -4.21875 2.171875 -4.34375 1.734375 -4.34375 C 0.953125 -4.34375 0.359375 -3.953125 0.359375 -3.21875 C 0.359375 -2.546875 0.71875 -2.234375 1.546875 -1.828125 C 2.375 -1.421875 2.546875 -1.25 2.546875 -0.828125 C 2.546875 -0.40625 2.21875 -0.234375 1.765625 -0.234375 C 1.109375 -0.234375 0.765625 -0.546875 0.578125 -1.46875 L 0.34375 -1.46875 Z M 0.375 0.078125 "/>
</g>
<g id="glyph-2-9">
<path d="M 2.296875 0 L 2.296875 -0.25 C 1.703125 -0.25 1.65625 -0.390625 1.65625 -0.90625 L 1.65625 -4.3125 L 1.421875 -4.3125 L 0.296875 -4.0625 L 0.296875 -3.8125 C 0.296875 -3.8125 0.390625 -3.828125 0.515625 -3.828125 C 0.78125 -3.828125 0.90625 -3.78125 0.90625 -3.40625 L 0.90625 -0.90625 C 0.90625 -0.390625 0.890625 -0.25 0.28125 -0.25 L 0.28125 0 Z M 1.296875 -5.015625 C 1.609375 -5.015625 1.8125 -5.25 1.8125 -5.53125 C 1.8125 -5.796875 1.609375 -6.03125 1.296875 -6.03125 C 0.984375 -6.03125 0.78125 -5.796875 0.78125 -5.53125 C 0.78125 -5.25 1 -5.015625 1.296875 -5.015625 Z M 1.296875 -5.015625 "/>
</g>
<g id="glyph-2-10">
<path d="M 2.328125 0 L 2.328125 -0.265625 C 1.6875 -0.265625 1.640625 -0.390625 1.640625 -0.90625 L 1.640625 -6.328125 L 1.421875 -6.328125 L 0.234375 -6 L 0.234375 -5.765625 C 0.234375 -5.765625 0.359375 -5.78125 0.515625 -5.78125 C 0.75 -5.78125 0.890625 -5.765625 0.890625 -5.40625 L 0.890625 -0.90625 C 0.890625 -0.40625 0.859375 -0.265625 0.265625 -0.265625 L 0.265625 0 Z M 2.328125 0 "/>
</g>
<g id="glyph-2-11">
<path d="M 2.625 -0.8125 C 2.40625 -0.5625 2.28125 -0.4375 2 -0.4375 C 1.640625 -0.4375 1.5625 -0.65625 1.5625 -1.296875 L 1.5625 -3.8125 L 2.578125 -3.8125 L 2.578125 -4.1875 L 1.5625 -4.1875 L 1.5625 -5.46875 L 1.34375 -5.46875 C 1.015625 -4.703125 0.75 -4.28125 0.328125 -4.015625 L 0.328125 -3.8125 L 0.828125 -3.8125 L 0.828125 -1.03125 C 0.828125 -0.234375 1.078125 0.09375 1.6875 0.09375 C 2.25 0.09375 2.4375 -0.171875 2.796875 -0.65625 Z M 2.625 -0.8125 "/>
</g>
<g id="glyph-2-12">
<path d="M 0.421875 1.671875 C 1.859375 0.921875 2.796875 -0.484375 2.796875 -2.453125 C 2.796875 -4.40625 1.859375 -5.796875 0.421875 -6.53125 L 0.28125 -6.296875 C 1.578125 -5.4375 2.0625 -4.234375 2.0625 -2.453125 C 2.0625 -0.65625 1.578125 0.5625 0.28125 1.421875 Z M 0.421875 1.671875 "/>
</g>
<g id="glyph-2-13">
<path d="M 4.828125 0.046875 L 6.15625 -3.390625 C 6.34375 -3.84375 6.46875 -3.96875 6.828125 -3.96875 L 6.828125 -4.234375 L 5.265625 -4.234375 L 5.265625 -3.96875 C 5.609375 -3.96875 5.78125 -3.921875 5.78125 -3.75 C 5.78125 -3.59375 5.734375 -3.46875 5.71875 -3.421875 L 5.015625 -1.421875 L 4.828125 -0.90625 L 4.78125 -0.90625 L 4.625 -1.421875 L 3.890625 -3.390625 C 3.84375 -3.515625 3.8125 -3.640625 3.8125 -3.75 C 3.8125 -3.890625 3.921875 -3.96875 4.265625 -3.96875 L 4.265625 -4.234375 L 2.390625 -4.234375 L 2.390625 -3.96875 C 2.78125 -3.96875 2.921875 -3.90625 3.140625 -3.328125 L 3.234375 -3.046875 L 2.59375 -1.421875 L 2.40625 -0.90625 L 2.34375 -0.90625 L 2.171875 -1.421875 L 1.390625 -3.40625 C 1.34375 -3.53125 1.296875 -3.640625 1.296875 -3.75 C 1.296875 -3.890625 1.421875 -3.96875 1.765625 -3.96875 L 1.765625 -4.234375 L -0.15625 -4.234375 L -0.15625 -3.96875 C 0.234375 -3.96875 0.375 -3.875 0.609375 -3.328125 L 1.953125 0.046875 L 2.359375 0.046875 L 3.40625 -2.546875 L 3.453125 -2.546875 L 4.390625 0.046875 Z M 4.828125 0.046875 "/>
</g>
<g id="glyph-2-14">
<path d="M 2.375 0.046875 L 3.78125 -3.390625 C 3.96875 -3.84375 4.109375 -3.96875 4.453125 -3.96875 L 4.453125 -4.234375 L 2.890625 -4.234375 L 2.890625 -3.96875 C 3.21875 -3.96875 3.40625 -3.9375 3.40625 -3.734375 C 3.40625 -3.59375 3.34375 -3.484375 3.34375 -3.4375 L 2.5625 -1.421875 L 2.375 -0.875 L 2.328125 -0.875 L 2.15625 -1.40625 L 1.390625 -3.40625 C 1.34375 -3.53125 1.3125 -3.640625 1.3125 -3.75 C 1.3125 -3.890625 1.421875 -3.96875 1.765625 -3.96875 L 1.765625 -4.234375 L -0.109375 -4.234375 L -0.109375 -3.96875 C 0.265625 -3.96875 0.375 -3.875 0.609375 -3.328125 L 1.9375 0.046875 Z M 2.375 0.046875 "/>
</g>
<g id="glyph-2-15">
<path d="M 2.21875 0.09375 C 3.140625 0.09375 3.5625 -0.46875 3.890625 -1.15625 L 3.71875 -1.28125 C 3.421875 -0.90625 3.15625 -0.578125 2.421875 -0.578125 C 1.6875 -0.578125 1.03125 -1.15625 1.015625 -2.375 L 3.859375 -2.375 C 3.8125 -3.640625 3.171875 -4.34375 2.1875 -4.34375 C 1.140625 -4.34375 0.296875 -3.625 0.296875 -2.125 C 0.296875 -0.6875 1.140625 0.09375 2.21875 0.09375 Z M 1.03125 -2.71875 C 1.09375 -3.53125 1.4375 -3.984375 2.0625 -3.984375 C 2.6875 -3.984375 2.984375 -3.375 3.015625 -2.71875 Z M 1.03125 -2.71875 "/>
</g>
<g id="glyph-2-16">
<path d="M 4.921875 0 L 4.921875 -0.265625 C 4.28125 -0.265625 4.234375 -0.421875 4.234375 -1.03125 L 4.234375 -3.21875 C 4.53125 -3.46875 4.890625 -3.765625 5.265625 -3.765625 C 5.6875 -3.765625 6.03125 -3.578125 6.03125 -2.75 L 6.03125 -1.03125 C 6.03125 -0.5 6 -0.265625 5.40625 -0.265625 L 5.40625 0 L 7.421875 0 L 7.421875 -0.265625 C 6.796875 -0.265625 6.78125 -0.46875 6.78125 -1.03125 L 6.78125 -2.859375 C 6.78125 -3.953125 6.328125 -4.34375 5.625 -4.34375 C 5.140625 -4.34375 4.6875 -4.078125 4.203125 -3.59375 L 4.15625 -3.59375 C 3.984375 -4.03125 3.6875 -4.34375 3.171875 -4.34375 C 2.5625 -4.34375 2.15625 -4.015625 1.671875 -3.59375 L 1.625 -3.59375 L 1.625 -4.3125 L 1.421875 -4.3125 L 0.296875 -4.0625 L 0.296875 -3.796875 C 0.296875 -3.796875 0.40625 -3.8125 0.53125 -3.8125 C 0.78125 -3.8125 0.90625 -3.734375 0.90625 -3.40625 L 0.90625 -0.90625 C 0.90625 -0.359375 0.84375 -0.265625 0.28125 -0.265625 L 0.28125 0 L 2.328125 0 L 2.328125 -0.265625 C 1.765625 -0.265625 1.65625 -0.359375 1.65625 -0.875 L 1.65625 -3.203125 C 1.90625 -3.4375 2.3125 -3.765625 2.78125 -3.765625 C 3.1875 -3.765625 3.484375 -3.578125 3.484375 -2.8125 L 3.484375 -1.03125 C 3.484375 -0.40625 3.4375 -0.265625 2.796875 -0.265625 L 2.796875 0 Z M 4.921875 0 "/>
</g>
<g id="glyph-2-17">
<path d="M 2.5 0 L 2.5 -0.265625 C 1.828125 -0.265625 1.65625 -0.34375 1.65625 -0.90625 L 1.65625 -2.953125 C 1.875 -3.3125 2.15625 -3.6875 2.359375 -3.6875 C 2.46875 -3.6875 2.65625 -3.390625 2.953125 -3.390625 C 3.140625 -3.390625 3.34375 -3.53125 3.34375 -3.875 C 3.34375 -4.171875 3.171875 -4.375 2.8125 -4.375 C 2.390625 -4.375 2.125 -4.0625 1.671875 -3.390625 L 1.640625 -3.390625 L 1.640625 -4.3125 L 1.421875 -4.3125 L 0.3125 -4.046875 L 0.3125 -3.796875 C 0.3125 -3.796875 0.40625 -3.8125 0.59375 -3.8125 C 0.90625 -3.8125 0.90625 -3.65625 0.90625 -3.328125 L 0.90625 -0.875 C 0.90625 -0.359375 0.84375 -0.265625 0.265625 -0.265625 L 0.265625 0 Z M 2.5 0 "/>
</g>
<g id="glyph-2-18">
<path d="M 5.890625 -3.0625 L 5.890625 -3.671875 L 0.5625 -3.671875 L 0.5625 -3.0625 Z M 5.890625 -0.9375 L 5.890625 -1.546875 L 0.5625 -1.546875 L 0.5625 -0.9375 Z M 5.890625 -0.9375 "/>
</g>
<g id="glyph-2-19">
<path d="M 4.984375 0 L 4.984375 -0.265625 C 4.40625 -0.265625 4.3125 -0.4375 4.3125 -0.90625 L 4.3125 -2.6875 C 4.3125 -3.421875 4.140625 -4.34375 3.109375 -4.34375 C 2.640625 -4.34375 2.234375 -4.140625 1.671875 -3.609375 L 1.640625 -3.609375 L 1.640625 -6.328125 L 1.390625 -6.328125 L 0.203125 -6 L 0.203125 -5.75 C 0.203125 -5.75 0.3125 -5.78125 0.453125 -5.78125 C 0.703125 -5.78125 0.890625 -5.734375 0.890625 -5.421875 L 0.890625 -0.828125 C 0.890625 -0.328125 0.734375 -0.265625 0.265625 -0.265625 L 0.265625 0 L 2.296875 0 L 2.296875 -0.265625 C 1.6875 -0.265625 1.640625 -0.40625 1.640625 -0.875 L 1.640625 -3.21875 C 2.078125 -3.609375 2.40625 -3.765625 2.75 -3.765625 C 3.46875 -3.765625 3.578125 -3.15625 3.578125 -2.421875 L 3.578125 -0.875 C 3.578125 -0.4375 3.53125 -0.265625 2.921875 -0.265625 L 2.921875 0 Z M 4.984375 0 "/>
</g>
<g id="glyph-2-20">
<path d="M 3.71875 0 L 3.8125 -1.4375 L 3.515625 -1.4375 C 3.328125 -0.59375 3.140625 -0.359375 2.375 -0.359375 L 1.25 -0.359375 L 1.25 -0.390625 L 3.765625 -3.96875 L 3.765625 -4.234375 L 0.46875 -4.234375 L 0.421875 -2.921875 L 0.703125 -2.921875 C 0.78125 -3.515625 0.921875 -3.859375 1.578125 -3.859375 L 2.796875 -3.859375 L 2.796875 -3.828125 L 0.28125 -0.265625 L 0.28125 0 Z M 3.71875 0 "/>
</g>
<g id="glyph-2-21">
<path d="M 0.625 1.1875 C 0.984375 1.015625 1.734375 0.71875 1.734375 -0.296875 C 1.734375 -0.78125 1.5 -1.078125 1.046875 -1.078125 C 0.6875 -1.078125 0.5 -0.84375 0.5 -0.5625 C 0.5 -0.296875 0.640625 -0.078125 0.984375 -0.078125 C 1.078125 -0.078125 1.15625 -0.09375 1.265625 -0.125 C 1.265625 0.59375 0.84375 0.8125 0.515625 0.953125 Z M 0.625 1.1875 "/>
</g>
<g id="glyph-2-22">
<path d="M 2.46875 1.96875 L 2.46875 1.703125 C 1.765625 1.703125 1.59375 1.59375 1.59375 1.015625 L 1.59375 -0.15625 L 1.625 -0.15625 C 1.890625 0.015625 2.1875 0.09375 2.53125 0.09375 C 3.609375 0.09375 4.5 -0.8125 4.5 -2.34375 C 4.5 -3.515625 3.875 -4.34375 2.984375 -4.34375 C 2.46875 -4.34375 2.03125 -4.0625 1.609375 -3.5625 L 1.578125 -3.5625 L 1.578125 -4.3125 L 1.359375 -4.3125 L 0.21875 -4.0625 L 0.21875 -3.8125 C 0.21875 -3.8125 0.390625 -3.828125 0.515625 -3.828125 C 0.8125 -3.828125 0.84375 -3.703125 0.84375 -3.359375 L 0.84375 1.0625 C 0.84375 1.5625 0.765625 1.71875 0.203125 1.71875 L 0.203125 1.96875 Z M 2.578125 -0.265625 C 2.078125 -0.265625 1.765625 -0.65625 1.59375 -0.84375 L 1.59375 -3.1875 C 1.765625 -3.40625 2.15625 -3.734375 2.625 -3.734375 C 3.28125 -3.734375 3.6875 -3.21875 3.6875 -2.09375 C 3.6875 -0.84375 3.203125 -0.265625 2.578125 -0.265625 Z M 2.578125 -0.265625 "/>
</g>
<g id="glyph-2-23">
<path d="M 1.828125 0.078125 C 2.421875 0.078125 2.875 -0.265625 3.21875 -0.578125 L 3.25 -0.578125 L 3.25 0.046875 L 3.453125 0.046875 L 4.609375 -0.15625 L 4.609375 -0.40625 L 4.40625 -0.40625 C 4.078125 -0.40625 3.96875 -0.5 3.96875 -0.953125 L 3.96875 -6.328125 L 3.71875 -6.328125 L 2.59375 -6 L 2.59375 -5.75 C 2.59375 -5.75 2.75 -5.78125 2.828125 -5.78125 C 3.171875 -5.78125 3.21875 -5.6875 3.21875 -5.296875 L 3.21875 -4.125 L 3.1875 -4.125 C 2.921875 -4.265625 2.640625 -4.34375 2.359375 -4.34375 C 1.234375 -4.34375 0.296875 -3.4375 0.296875 -1.953125 C 0.296875 -0.8125 0.8125 0.078125 1.828125 0.078125 Z M 2.25 -0.578125 C 1.484375 -0.578125 1.078125 -1.078125 1.078125 -2.3125 C 1.078125 -3.4375 1.578125 -3.984375 2.34375 -3.984375 C 2.890625 -3.984375 3.15625 -3.640625 3.21875 -3.265625 L 3.21875 -0.90625 C 2.90625 -0.6875 2.671875 -0.578125 2.25 -0.578125 Z M 2.25 -0.578125 "/>
</g>
</g>
</defs>
<path fill="none" stroke-width="0.79703" stroke-linecap="round" stroke-linejoin="round" stroke="rgb(0%, 0%, 0%)" stroke-opacity="1" stroke-miterlimit="10" d="M 0.0018214 -0.00128336 L 0.0018214 89.534725 " transform="matrix(0.997984, 0, 0, -0.997984, 12.412245, 116.139344)"/>
<path fill-rule="nonzero" fill="rgb(0%, 0%, 0%)" fill-opacity="1" d="M 12.414062 24.199219 L 10.34375 28.335938 L 12.414062 26.785156 L 14.480469 28.335938 "/>
<path fill="none" stroke-width="0.79703" stroke-linecap="round" stroke-linejoin="round" stroke="rgb(0%, 0%, 0%)" stroke-opacity="1" stroke-miterlimit="10" d="M 0.0018214 -0.00128336 L 124.968647 -0.00128336 " transform="matrix(0.997984, 0, 0, -0.997984, 12.412245, 116.139344)"/>
<path fill-rule="nonzero" fill="rgb(0%, 0%, 0%)" fill-opacity="1" d="M 139.714844 116.140625 L 135.578125 114.070312 L 137.128906 116.140625 L 135.578125 118.207031 "/>
<g fill="rgb(0%, 0%, 0%)" fill-opacity="1">
<use xlink:href="#glyph-0-0" x="21.016859" y="14.504694"/>
</g>
<g fill="rgb(0%, 0%, 0%)" fill-opacity="1">
<use xlink:href="#glyph-0-1" x="28.748191" y="14.504694"/>
</g>
<g fill="rgb(0%, 0%, 0%)" fill-opacity="1">
<use xlink:href="#glyph-0-2" x="37.678594" y="14.504694"/>
</g>
<g fill="rgb(0%, 0%, 0%)" fill-opacity="1">
<use xlink:href="#glyph-1-0" x="42.113235" y="11.283203"/>
</g>
<g fill="rgb(0%, 0%, 0%)" fill-opacity="1">
<use xlink:href="#glyph-0-3" x="21.016859" y="25.441596"/>
</g>
<g fill="rgb(0%, 0%, 0%)" fill-opacity="1">
<use xlink:href="#glyph-0-1" x="28.59607" y="25.441596"/>
</g>
<g fill="rgb(0%, 0%, 0%)" fill-opacity="1">
<use xlink:href="#glyph-0-4" x="37.526473" y="25.441596"/>
</g>
<g fill="rgb(0%, 0%, 0%)" fill-opacity="1">
<use xlink:href="#glyph-2-0" x="46.605159" y="25.441596"/>
<use xlink:href="#glyph-2-1" x="49.674426" y="25.441596"/>
<use xlink:href="#glyph-2-2" x="54.345439" y="25.441596"/>
<use xlink:href="#glyph-2-3" x="59.44597" y="25.441596"/>
<use xlink:href="#glyph-2-4" x="64.045396" y="25.441596"/>
</g>
<g fill="rgb(0%, 0%, 0%)" fill-opacity="1">
<use xlink:href="#glyph-2-5" x="68.233201" y="25.441596"/>
<use xlink:href="#glyph-2-6" x="72.528385" y="25.441596"/>
<use xlink:href="#glyph-2-7" x="77.682606" y="25.441596"/>
<use xlink:href="#glyph-2-4" x="81.673548" y="25.441596"/>
</g>
<g fill="rgb(0%, 0%, 0%)" fill-opacity="1">
<use xlink:href="#glyph-2-3" x="88.098427" y="25.441596"/>
<use xlink:href="#glyph-2-8" x="92.697854" y="25.441596"/>
<use xlink:href="#glyph-2-7" x="96.232432" y="25.441596"/>
<use xlink:href="#glyph-2-9" x="100.223374" y="25.441596"/>
<use xlink:href="#glyph-2-10" x="102.77364" y="25.441596"/>
<use xlink:href="#glyph-2-10" x="105.306009" y="25.441596"/>
<use xlink:href="#glyph-2-5" x="107.838378" y="25.441596"/>
<use xlink:href="#glyph-2-11" x="112.133562" y="25.441596"/>
<use xlink:href="#glyph-2-9" x="114.952276" y="25.441596"/>
<use xlink:href="#glyph-2-3" x="117.502542" y="25.441596"/>
<use xlink:href="#glyph-2-6" x="122.101968" y="25.441596"/>
<use xlink:href="#glyph-2-8" x="127.256189" y="25.441596"/>
<use xlink:href="#glyph-2-12" x="130.790768" y="25.441596"/>
</g>
<g fill="rgb(0%, 0%, 0%)" fill-opacity="1">
<use xlink:href="#glyph-0-5" x="21.016859" y="36.378498"/>
</g>
<g fill="rgb(0%, 0%, 0%)" fill-opacity="1">
<use xlink:href="#glyph-0-6" x="28.059172" y="36.378498"/>
</g>
<g fill="rgb(0%, 0%, 0%)" fill-opacity="1">
<use xlink:href="#glyph-0-7" x="23.406056" y="36.378498"/>
</g>
<g fill="rgb(0%, 0%, 0%)" fill-opacity="1">
<use xlink:href="#glyph-1-1" x="27.504751" y="38.257702"/>
</g>
<g fill="rgb(0%, 0%, 0%)" fill-opacity="1">
<use xlink:href="#glyph-0-5" x="31.585506" y="36.378498"/>
</g>
<g fill="rgb(0%, 0%, 0%)" fill-opacity="1">
<use xlink:href="#glyph-0-1" x="36.453381" y="36.378498"/>
</g>
<g fill="rgb(0%, 0%, 0%)" fill-opacity="1">
<use xlink:href="#glyph-0-2" x="45.383785" y="36.378498"/>
</g>
<g fill="rgb(0%, 0%, 0%)" fill-opacity="1">
<use xlink:href="#glyph-2-13" x="21.016859" y="47.315401"/>
</g>
<g fill="rgb(0%, 0%, 0%)" fill-opacity="1">
<use xlink:href="#glyph-2-5" x="27.584912" y="47.315401"/>
</g>
<g fill="rgb(0%, 0%, 0%)" fill-opacity="1">
<use xlink:href="#glyph-2-14" x="31.656388" y="47.315401"/>
</g>
<g fill="rgb(0%, 0%, 0%)" fill-opacity="1">
<use xlink:href="#glyph-2-15" x="35.915779" y="47.315401"/>
<use xlink:href="#glyph-2-6" x="40.067791" y="47.315401"/>
<use xlink:href="#glyph-2-2" x="45.222012" y="47.315401"/>
<use xlink:href="#glyph-2-16" x="50.322543" y="47.315401"/>
<use xlink:href="#glyph-2-1" x="57.946495" y="47.315401"/>
<use xlink:href="#glyph-2-15" x="62.617507" y="47.315401"/>
<use xlink:href="#glyph-2-17" x="66.769519" y="47.315401"/>
</g>
<g fill="rgb(0%, 0%, 0%)" fill-opacity="1">
<use xlink:href="#glyph-2-18" x="72.272723" y="47.315401"/>
</g>
<g fill="rgb(0%, 0%, 0%)" fill-opacity="1">
<use xlink:href="#glyph-2-5" x="80.81835" y="47.315401"/>
<use xlink:href="#glyph-2-17" x="85.113534" y="47.315401"/>
<use xlink:href="#glyph-2-1" x="88.513888" y="47.315401"/>
<use xlink:href="#glyph-2-9" x="93.184901" y="47.315401"/>
<use xlink:href="#glyph-2-11" x="95.735167" y="47.315401"/>
<use xlink:href="#glyph-2-17" x="98.553881" y="47.315401"/>
</g>
<g fill="rgb(0%, 0%, 0%)" fill-opacity="1">
<use xlink:href="#glyph-2-5" x="101.820011" y="47.315401"/>
<use xlink:href="#glyph-2-17" x="106.115195" y="47.315401"/>
<use xlink:href="#glyph-2-4" x="109.515549" y="47.315401"/>
</g>
<g fill="rgb(0%, 0%, 0%)" fill-opacity="1">
<use xlink:href="#glyph-2-19" x="115.940428" y="47.315401"/>
<use xlink:href="#glyph-2-3" x="121.103598" y="47.315401"/>
<use xlink:href="#glyph-2-17" x="125.703024" y="47.315401"/>
<use xlink:href="#glyph-2-9" x="129.103378" y="47.315401"/>
<use xlink:href="#glyph-2-20" x="131.653644" y="47.315401"/>
<use xlink:href="#glyph-2-3" x="135.751965" y="47.315401"/>
<use xlink:href="#glyph-2-6" x="140.351392" y="47.315401"/>
<use xlink:href="#glyph-2-11" x="145.505613" y="47.315401"/>
<use xlink:href="#glyph-2-5" x="148.324327" y="47.315401"/>
<use xlink:href="#glyph-2-10" x="152.619511" y="47.315401"/>
<use xlink:href="#glyph-2-21" x="155.15188" y="47.315401"/>
</g>
<g fill="rgb(0%, 0%, 0%)" fill-opacity="1">
<use xlink:href="#glyph-0-8" x="159.447165" y="47.315401"/>
</g>
<g fill="rgb(0%, 0%, 0%)" fill-opacity="1">
<use xlink:href="#glyph-0-1" x="169.352934" y="47.315401"/>
</g>
<g fill="rgb(0%, 0%, 0%)" fill-opacity="1">
<use xlink:href="#glyph-0-2" x="178.283338" y="47.315401"/>
</g>
<g fill="rgb(0%, 0%, 0%)" fill-opacity="1">
<use xlink:href="#glyph-2-0" x="21.016859" y="58.251305"/>
<use xlink:href="#glyph-2-7" x="24.086126" y="58.251305"/>
<use xlink:href="#glyph-2-3" x="28.077068" y="58.251305"/>
<use xlink:href="#glyph-2-10" x="32.676495" y="58.251305"/>
<use xlink:href="#glyph-2-2" x="35.208864" y="58.251305"/>
<use xlink:href="#glyph-2-16" x="40.309395" y="58.251305"/>
<use xlink:href="#glyph-2-6" x="47.933347" y="58.251305"/>
<use xlink:href="#glyph-2-5" x="53.087568" y="58.251305"/>
<use xlink:href="#glyph-2-17" x="57.382752" y="58.251305"/>
</g>
<g fill="rgb(0%, 0%, 0%)" fill-opacity="1">
<use xlink:href="#glyph-2-8" x="62.885956" y="58.251305"/>
<use xlink:href="#glyph-2-11" x="66.420535" y="58.251305"/>
<use xlink:href="#glyph-2-17" x="69.239249" y="58.251305"/>
<use xlink:href="#glyph-2-2" x="72.639604" y="58.251305"/>
<use xlink:href="#glyph-2-7" x="77.740135" y="58.251305"/>
<use xlink:href="#glyph-2-11" x="81.731077" y="58.251305"/>
<use xlink:href="#glyph-2-2" x="84.549791" y="58.251305"/>
<use xlink:href="#glyph-2-17" x="89.650322" y="58.251305"/>
</g>
<g fill="rgb(0%, 0%, 0%)" fill-opacity="1">
<use xlink:href="#glyph-2-15" x="92.961193" y="58.251305"/>
<use xlink:href="#glyph-2-12" x="97.113205" y="58.251305"/>
</g>
<g fill="rgb(0%, 0%, 0%)" fill-opacity="1">
<use xlink:href="#glyph-0-0" x="131.9118" y="56.153544"/>
</g>
<g fill="rgb(0%, 0%, 0%)" fill-opacity="1">
<use xlink:href="#glyph-0-1" x="139.643131" y="56.153544"/>
</g>
<g fill="rgb(0%, 0%, 0%)" fill-opacity="1">
<use xlink:href="#glyph-0-9" x="148.573535" y="56.153544"/>
<use xlink:href="#glyph-0-2" x="153.002943" y="56.153544"/>
</g>
<g fill="rgb(0%, 0%, 0%)" fill-opacity="1">
<use xlink:href="#glyph-1-0" x="157.437227" y="52.932053"/>
</g>
<g fill="rgb(0%, 0%, 0%)" fill-opacity="1">
<use xlink:href="#glyph-0-3" x="131.9118" y="67.090446"/>
</g>
<g fill="rgb(0%, 0%, 0%)" fill-opacity="1">
<use xlink:href="#glyph-0-1" x="139.49101" y="67.090446"/>
</g>
<g fill="rgb(0%, 0%, 0%)" fill-opacity="1">
<use xlink:href="#glyph-0-10" x="148.421414" y="67.090446"/>
</g>
<g fill="rgb(0%, 0%, 0%)" fill-opacity="1">
<use xlink:href="#glyph-2-0" x="155.87139" y="67.090446"/>
<use xlink:href="#glyph-2-9" x="158.940657" y="67.090446"/>
<use xlink:href="#glyph-2-6" x="161.490923" y="67.090446"/>
<use xlink:href="#glyph-2-15" x="166.645144" y="67.090446"/>
<use xlink:href="#glyph-2-17" x="170.797155" y="67.090446"/>
<use xlink:href="#glyph-2-11" x="174.197509" y="67.090446"/>
<use xlink:href="#glyph-2-9" x="177.016224" y="67.090446"/>
<use xlink:href="#glyph-2-5" x="179.566489" y="67.090446"/>
<use xlink:href="#glyph-2-10" x="183.861673" y="67.090446"/>
</g>
<g fill="rgb(0%, 0%, 0%)" fill-opacity="1">
<use xlink:href="#glyph-2-3" x="188.496893" y="67.090446"/>
<use xlink:href="#glyph-2-8" x="193.096319" y="67.090446"/>
<use xlink:href="#glyph-2-7" x="196.630898" y="67.090446"/>
<use xlink:href="#glyph-2-9" x="200.62184" y="67.090446"/>
<use xlink:href="#glyph-2-10" x="203.172105" y="67.090446"/>
<use xlink:href="#glyph-2-10" x="205.704474" y="67.090446"/>
<use xlink:href="#glyph-2-5" x="208.236843" y="67.090446"/>
<use xlink:href="#glyph-2-11" x="212.532027" y="67.090446"/>
<use xlink:href="#glyph-2-9" x="215.350742" y="67.090446"/>
<use xlink:href="#glyph-2-3" x="217.901008" y="67.090446"/>
<use xlink:href="#glyph-2-6" x="222.500434" y="67.090446"/>
<use xlink:href="#glyph-2-8" x="227.654655" y="67.090446"/>
<use xlink:href="#glyph-2-12" x="231.189233" y="67.090446"/>
</g>
<g fill="rgb(0%, 0%, 0%)" fill-opacity="1">
<use xlink:href="#glyph-0-5" x="131.9118" y="78.027348"/>
</g>
<g fill="rgb(0%, 0%, 0%)" fill-opacity="1">
<use xlink:href="#glyph-0-6" x="138.954112" y="78.027348"/>
</g>
<g fill="rgb(0%, 0%, 0%)" fill-opacity="1">
<use xlink:href="#glyph-0-7" x="134.300996" y="78.027348"/>
</g>
<g fill="rgb(0%, 0%, 0%)" fill-opacity="1">
<use xlink:href="#glyph-1-1" x="138.398693" y="79.906551"/>
</g>
<g fill="rgb(0%, 0%, 0%)" fill-opacity="1">
<use xlink:href="#glyph-0-5" x="142.479448" y="78.027348"/>
</g>
<g fill="rgb(0%, 0%, 0%)" fill-opacity="1">
<use xlink:href="#glyph-0-1" x="147.347324" y="78.027348"/>
</g>
<g fill="rgb(0%, 0%, 0%)" fill-opacity="1">
<use xlink:href="#glyph-0-2" x="156.277727" y="78.027348"/>
</g>
<g fill="rgb(0%, 0%, 0%)" fill-opacity="1">
<use xlink:href="#glyph-2-13" x="131.9118" y="88.963253"/>
</g>
<g fill="rgb(0%, 0%, 0%)" fill-opacity="1">
<use xlink:href="#glyph-2-5" x="138.479852" y="88.963253"/>
</g>
<g fill="rgb(0%, 0%, 0%)" fill-opacity="1">
<use xlink:href="#glyph-2-14" x="142.551329" y="88.963253"/>
</g>
<g fill="rgb(0%, 0%, 0%)" fill-opacity="1">
<use xlink:href="#glyph-2-15" x="146.81072" y="88.963253"/>
<use xlink:href="#glyph-2-6" x="150.962731" y="88.963253"/>
<use xlink:href="#glyph-2-2" x="156.116952" y="88.963253"/>
<use xlink:href="#glyph-2-16" x="161.217483" y="88.963253"/>
<use xlink:href="#glyph-2-1" x="168.841435" y="88.963253"/>
<use xlink:href="#glyph-2-15" x="173.512448" y="88.963253"/>
<use xlink:href="#glyph-2-17" x="177.664459" y="88.963253"/>
</g>
<g fill="rgb(0%, 0%, 0%)" fill-opacity="1">
<use xlink:href="#glyph-2-18" x="183.167664" y="88.963253"/>
</g>
<g fill="rgb(0%, 0%, 0%)" fill-opacity="1">
<use xlink:href="#glyph-2-14" x="191.71329" y="88.963253"/>
</g>
<g fill="rgb(0%, 0%, 0%)" fill-opacity="1">
<use xlink:href="#glyph-2-15" x="195.972681" y="88.963253"/>
<use xlink:href="#glyph-2-17" x="200.124693" y="88.963253"/>
<use xlink:href="#glyph-2-11" x="203.525047" y="88.963253"/>
<use xlink:href="#glyph-2-9" x="206.343761" y="88.963253"/>
<use xlink:href="#glyph-2-7" x="208.894027" y="88.963253"/>
<use xlink:href="#glyph-2-5" x="212.884969" y="88.963253"/>
<use xlink:href="#glyph-2-10" x="217.180153" y="88.963253"/>
<use xlink:href="#glyph-2-21" x="219.712522" y="88.963253"/>
</g>
<g fill="rgb(0%, 0%, 0%)" fill-opacity="1">
<use xlink:href="#glyph-0-11" x="224.007723" y="88.963253"/>
</g>
<g fill="rgb(0%, 0%, 0%)" fill-opacity="1">
<use xlink:href="#glyph-0-1" x="231.300588" y="88.963253"/>
</g>
<g fill="rgb(0%, 0%, 0%)" fill-opacity="1">
<use xlink:href="#glyph-0-12" x="240.230991" y="88.963253"/>
</g>
<g fill="rgb(0%, 0%, 0%)" fill-opacity="1">
<use xlink:href="#glyph-0-1" x="247.675977" y="88.963253"/>
</g>
<g fill="rgb(0%, 0%, 0%)" fill-opacity="1">
<use xlink:href="#glyph-0-2" x="256.606381" y="88.963253"/>
</g>
<g fill="rgb(0%, 0%, 0%)" fill-opacity="1">
<use xlink:href="#glyph-2-0" x="131.9118" y="99.900155"/>
<use xlink:href="#glyph-2-10" x="134.981067" y="99.900155"/>
<use xlink:href="#glyph-2-5" x="137.513436" y="99.900155"/>
</g>
<g fill="rgb(0%, 0%, 0%)" fill-opacity="1">
<use xlink:href="#glyph-2-4" x="141.629654" y="99.900155"/>
</g>
<g fill="rgb(0%, 0%, 0%)" fill-opacity="1">
<use xlink:href="#glyph-2-15" x="145.906941" y="99.900155"/>
<use xlink:href="#glyph-2-17" x="150.058953" y="99.900155"/>
<use xlink:href="#glyph-2-8" x="153.459307" y="99.900155"/>
</g>
<g fill="rgb(0%, 0%, 0%)" fill-opacity="1">
<use xlink:href="#glyph-2-2" x="159.096736" y="99.900155"/>
<use xlink:href="#glyph-2-6" x="164.197267" y="99.900155"/>
<use xlink:href="#glyph-2-7" x="169.351488" y="99.900155"/>
<use xlink:href="#glyph-2-3" x="173.34243" y="99.900155"/>
<use xlink:href="#glyph-2-2" x="177.941856" y="99.900155"/>
<use xlink:href="#glyph-2-22" x="183.042387" y="99.900155"/>
<use xlink:href="#glyph-2-10" x="187.847625" y="99.900155"/>
<use xlink:href="#glyph-2-15" x="190.379994" y="99.900155"/>
<use xlink:href="#glyph-2-23" x="194.532005" y="99.900155"/>
<use xlink:href="#glyph-2-12" x="199.355139" y="99.900155"/>
</g>
</svg>
