<?xml version="1.0" encoding="UTF-8"?>
<!-- wave-generated-sha256: 96780228d85ce8d0 -->
<svg xmlns="http://www.w3.org/2000/svg" xmlns:xlink="http://www.w3.org/1999/xlink" width="247.277pt" height="170.616pt" viewBox="0 0 247.277 170.616">
<defs>
<g>
<g id="glyph-0-0">
<path d="M 2.8125 -2.65625 L 2.78125 -2.65625 L 2.6875 -3.125 C 2.5625 -3.609375 2.390625 -4 2.171875 -4.25 L 2.03125 -4.25 L 0.796875 -4.109375 L 0.796875 -3.828125 C 0.796875 -3.828125 0.921875 -3.859375 1.078125 -3.859375 C 1.65625 -3.875 1.8125 -3.625 2.0625 -2.875 L 2.3125 -2.0625 L 1.65625 -1.125 C 1.3125 -0.625 1.15625 -0.609375 1.125 -0.609375 C 0.96875 -0.609375 0.75 -0.734375 0.546875 -0.734375 C 0.34375 -0.734375 0.203125 -0.53125 0.203125 -0.359375 C 0.203125 -0.140625 0.34375 0.078125 0.71875 0.078125 C 1.265625 0.078125 1.5625 -0.34375 1.84375 -0.796875 L 2.40625 -1.734375 L 2.453125 -1.734375 L 2.671875 -0.828125 C 2.796875 -0.25 3 0.09375 3.40625 0.09375 C 4.015625 0.09375 4.390625 -0.515625 4.640625 -0.90625 L 4.453125 -1.046875 C 4.21875 -0.734375 4.046875 -0.546875 3.8125 -0.546875 C 3.546875 -0.546875 3.359375 -0.890625 3.109375 -1.703125 L 2.921875 -2.3125 L 3.46875 -3.1875 C 3.625 -3.4375 3.75 -3.5625 3.953125 -3.5625 C 4.0625 -3.5625 4.265625 -3.46875 4.421875 -3.46875 C 4.65625 -3.46875 4.828125 -3.671875 4.828125 -3.890625 C 4.828125 -4.140625 4.71875 -4.28125 4.375 -4.28125 C 3.859375 -4.28125 3.5 -3.84375 3.25 -3.421875 Z M 2.8125 -2.65625 "/>
</g>
<g id="glyph-0-1">
<path d="M 3.921875 -1.53125 L 3.625 -1.53125 C 3.328125 -0.78125 3.140625 -0.640625 2.5 -0.640625 L 1.125 -0.640625 L 1.125 -0.671875 L 4.265625 -3.9375 L 4.296875 -4.171875 L 1.03125 -4.171875 L 0.703125 -2.796875 L 0.984375 -2.796875 C 1.15625 -3.390625 1.265625 -3.5625 1.828125 -3.5625 L 3.28125 -3.5625 L 3.28125 -3.53125 L 0.15625 -0.265625 L 0.109375 0 L 3.515625 0 Z M 3.921875 -1.53125 "/>
</g>
<g id="glyph-0-2">
<path d="M 2.25 -2.90625 C 2.140625 -3.625 2.078125 -3.90625 1.875 -4.25 L 1.75 -4.25 L 0.46875 -4.140625 L 0.46875 -3.890625 C 0.46875 -3.890625 0.65625 -3.90625 0.78125 -3.90625 C 1.328125 -3.90625 1.375 -3.46875 1.4375 -3.0625 L 1.96875 0.078125 C 1.71875 0.46875 1 1.46875 0.828125 1.46875 C 0.640625 1.46875 0.53125 1 0.203125 1 C -0.015625 1 -0.15625 1.125 -0.15625 1.390625 C -0.15625 1.71875 0.15625 1.96875 0.53125 1.96875 C 1.21875 1.96875 1.765625 1 2.578125 -0.140625 C 3.046875 -0.78125 3.5625 -1.546875 4.046875 -2.390625 C 4.328125 -2.875 4.4375 -3.28125 4.4375 -3.625 C 4.4375 -4.015625 4.203125 -4.3125 3.875 -4.3125 C 3.609375 -4.3125 3.484375 -4.140625 3.484375 -3.953125 C 3.484375 -3.625 3.921875 -3.375 3.921875 -3.140625 C 3.921875 -2.921875 3.828125 -2.703125 3.625 -2.359375 L 2.59375 -0.703125 L 2.53125 -0.703125 L 2.453125 -1.59375 Z M 2.25 -2.90625 "/>
</g>
<g id="glyph-0-3">
<path d="M 5.875 -2.921875 L 5.875 -3.53125 L 0.546875 -3.53125 L 0.546875 -2.921875 Z M 5.875 -1.09375 L 5.875 -1.703125 L 0.546875 -1.703125 L 0.546875 -1.09375 Z M 5.875 -1.09375 "/>
</g>
<g id="glyph-0-4">
<path d="M 4.1875 -2.828125 C 4.1875 -4.671875 3.375 -5.734375 2.21875 -5.734375 C 0.921875 -5.734375 0.234375 -4.5625 0.234375 -2.859375 C 0.234375 -1.28125 0.765625 0.09375 2.203125 0.09375 C 3.609375 0.09375 4.1875 -1.3125 4.1875 -2.828125 Z M 3.3125 -2.78125 C 3.3125 -1.0625 2.90625 -0.21875 2.203125 -0.21875 C 1.5 -0.21875 1.09375 -1.078125 1.09375 -2.8125 C 1.09375 -4.578125 1.5 -5.4375 2.203125 -5.4375 C 2.9375 -5.4375 3.3125 -4.59375 3.3125 -2.78125 Z M 3.3125 -2.78125 "/>
</g>
<g id="glyph-0-5">
<path d="M 4.828125 -1.75 L 4.546875 -1.75 C 4 -0.703125 3.8125 -0.34375 2.671875 -0.34375 L 2.25 -0.34375 C 1.71875 -0.34375 1.59375 -0.421875 1.671875 -0.828125 L 2.484375 -4.828125 C 2.625 -5.46875 2.90625 -5.609375 3.546875 -5.609375 L 3.59375 -5.875 L 1.046875 -5.875 L 1 -5.609375 C 1.765625 -5.609375 1.8125 -5.421875 1.6875 -4.828125 L 0.921875 -1.109375 C 0.765625 -0.390625 0.625 -0.265625 -0.0625 -0.265625 L -0.109375 0 L 4.296875 0 Z M 4.828125 -1.75 "/>
</g>
<g id="glyph-0-6">
<path d="M 1.171875 -0.625 C 1.171875 -0.21875 1.34375 0.078125 1.75 0.078125 C 2.359375 0.078125 2.71875 -0.21875 3.046875 -0.65625 L 2.921875 -0.796875 C 2.765625 -0.671875 2.59375 -0.546875 2.25 -0.546875 C 1.953125 -0.546875 1.890625 -0.828125 1.890625 -1.09375 C 1.890625 -1.515625 1.9375 -1.953125 2.40625 -3.46875 C 2.78125 -3.453125 3.015625 -3.453125 3.15625 -3.453125 C 3.796875 -3.453125 4.078125 -3.828125 4.15625 -4.109375 L 4.140625 -4.234375 C 3.859375 -4.203125 3.5625 -4.1875 3.25 -4.1875 C 2.890625 -4.1875 2.453125 -4.21875 2.03125 -4.21875 C 1.265625 -4.21875 0.65625 -3.953125 0.265625 -3.15625 L 0.46875 -3.03125 C 0.765625 -3.390625 0.953125 -3.5 1.546875 -3.5 C 1.6875 -3.5 1.8125 -3.5 1.96875 -3.484375 C 2 -3.484375 2.015625 -3.484375 2.03125 -3.484375 C 1.53125 -2.21875 1.171875 -1.234375 1.171875 -0.625 Z M 1.171875 -0.625 "/>
</g>
<g id="glyph-1-0">
<path d="M 1.96875 -2.21875 C 1.875 -2.765625 1.8125 -3.015625 1.671875 -3.25 L 1.46875 -3.25 L 0.453125 -3.1875 L 0.453125 -2.9375 C 0.453125 -2.9375 0.625 -2.953125 0.71875 -2.953125 C 1.1875 -2.953125 1.203125 -2.625 1.265625 -2.296875 L 1.6875 0.140625 C 1.484375 0.421875 1.03125 0.953125 0.90625 0.953125 C 0.75 0.953125 0.671875 0.53125 0.375 0.53125 C 0.171875 0.53125 0.046875 0.65625 0.046875 0.890625 C 0.046875 1.15625 0.34375 1.390625 0.671875 1.390625 C 1.25 1.390625 1.6875 0.71875 2.234375 -0.015625 C 2.78125 -0.75 3.03125 -1.09375 3.421875 -1.640625 C 3.703125 -2.046875 3.78125 -2.34375 3.78125 -2.65625 C 3.78125 -2.96875 3.546875 -3.28125 3.265625 -3.28125 C 3.03125 -3.28125 2.90625 -3.15625 2.90625 -3 C 2.90625 -2.71875 3.328125 -2.484375 3.328125 -2.28125 C 3.328125 -2.09375 3.234375 -1.921875 3.046875 -1.671875 L 2.25 -0.546875 L 2.15625 -0.546875 L 2.140625 -1.125 Z M 1.96875 -2.21875 "/>
</g>
</g>
</defs>
<path fill="none" stroke-width="0.74721" stroke-linecap="round" stroke-linejoin="round" stroke="rgb(0%, 0%, 0%)" stroke-opacity="1" stroke-miterlimit="10" d="M 29.764741 126.13982 L 239.845946 126.13982 " transform="matrix(0.997085, 0, 0, -0.997085, -14.482655, 174.4713)"/>
<path fill-rule="nonzero" fill="rgb(0%, 0%, 0%)" fill-opacity="1" d="M 227.171875 48.699219 L 223.160156 46.691406 L 224.664062 48.699219 L 223.160156 50.703125 "/>
<g fill="rgb(0%, 0%, 0%)" fill-opacity="1">
<use xlink:href="#glyph-0-0" x="230.85701" y="50.793914"/>
</g>
<path fill="none" stroke-width="0.74721" stroke-linecap="round" stroke-linejoin="round" stroke="rgb(0%, 0%, 0%)" stroke-opacity="1" stroke-miterlimit="10" d="M 29.764741 126.13982 L 29.764741 156.223617 " transform="matrix(0.997085, 0, 0, -0.997085, -14.482655, 174.4713)"/>
<path fill-rule="nonzero" fill="rgb(0%, 0%, 0%)" fill-opacity="1" d="M 15.195312 16.195312 L 13.1875 20.207031 L 15.195312 18.703125 L 17.199219 20.207031 "/>
<g fill="rgb(0%, 0%, 0%)" fill-opacity="1">
<use xlink:href="#glyph-0-1" x="12.946147" y="12.510848"/>
</g>
<path fill="none" stroke-width="0.74721" stroke-linecap="round" stroke-linejoin="round" stroke="rgb(0%, 0%, 0%)" stroke-opacity="1" stroke-miterlimit="10" d="M 29.764741 126.13982 L 82.633715 142.409909 " transform="matrix(0.997085, 0, 0, -0.997085, -14.482655, 174.4713)"/>
<path fill-rule="nonzero" fill="rgb(0%, 0%, 0%)" fill-opacity="1" d="M 70.308594 31.738281 L 65.882812 31 L 67.910156 32.476562 L 67.0625 34.835938 "/>
<g fill="rgb(0%, 0%, 0%)" fill-opacity="1">
<use xlink:href="#glyph-0-2" x="67.962289" y="26.089147"/>
</g>
<path fill-rule="nonzero" fill="rgb(87.998962%, 87.998962%, 87.998962%)" fill-opacity="1" d="M 15.195312 48.699219 C 43.457031 52.9375 71.722656 67.070312 99.984375 88.265625 C 114.117188 102.398438 119.769531 119.355469 131.074219 136.316406 L 230 136.316406 L 230 144.792969 L 15.195312 144.792969 Z M 15.195312 48.699219 "/>
<path fill="none" stroke-width="0.89664" stroke-linecap="round" stroke-linejoin="round" stroke="rgb(0%, 0%, 0%)" stroke-opacity="1" stroke-miterlimit="10" d="M 29.764741 126.13982 C 58.109093 121.889146 86.457362 107.715012 114.801714 86.457727 C 128.975849 72.283593 134.644719 55.276982 145.98246 38.266453 L 245.197485 38.266453 " transform="matrix(0.997085, 0, 0, -0.997085, -14.482655, 174.4713)"/>
<path fill="none" stroke-width="0.89664" stroke-linecap="round" stroke-linejoin="round" stroke="rgb(0%, 0%, 0%)" stroke-opacity="1" stroke-miterlimit="10" d="M 29.764741 126.13982 L 29.764741 29.765106 L 245.197485 29.765106 " transform="matrix(0.997085, 0, 0, -0.997085, -14.482655, 174.4713)"/>
<path fill-rule="nonzero" fill="rgb(0%, 0%, 0%)" fill-opacity="1" d="M 21.292969 61.417969 C 21.292969 61.167969 21.09375 60.96875 20.847656 60.96875 C 20.601562 60.96875 20.398438 61.167969 20.398438 61.417969 C 20.398438 61.664062 20.601562 61.863281 20.847656 61.863281 C 21.09375 61.863281 21.292969 61.664062 21.292969 61.417969 Z M 21.292969 61.417969 "/>
<path fill-rule="nonzero" fill="rgb(0%, 0%, 0%)" fill-opacity="1" d="M 32.597656 69.894531 C 32.597656 69.648438 32.398438 69.449219 32.152344 69.449219 C 31.90625 69.449219 31.707031 69.648438 31.707031 69.894531 C 31.707031 70.140625 31.90625 70.34375 32.152344 70.34375 C 32.398438 70.34375 32.597656 70.140625 32.597656 69.894531 Z M 32.597656 69.894531 "/>
<path fill-rule="nonzero" fill="rgb(0%, 0%, 0%)" fill-opacity="1" d="M 43.90625 78.375 C 43.90625 78.128906 43.707031 77.925781 43.457031 77.925781 C 43.210938 77.925781 43.011719 78.128906 43.011719 78.375 C 43.011719 78.621094 43.210938 78.820312 43.457031 78.820312 C 43.707031 78.820312 43.90625 78.621094 43.90625 78.375 Z M 43.90625 78.375 "/>
<path fill-rule="nonzero" fill="rgb(0%, 0%, 0%)" fill-opacity="1" d="M 55.210938 84.027344 C 55.210938 83.78125 55.011719 83.582031 54.761719 83.582031 C 54.515625 83.582031 54.316406 83.78125 54.316406 84.027344 C 54.316406 84.273438 54.515625 84.472656 54.761719 84.472656 C 55.011719 84.472656 55.210938 84.273438 55.210938 84.027344 Z M 55.210938 84.027344 "/>
<path fill-rule="nonzero" fill="rgb(0%, 0%, 0%)" fill-opacity="1" d="M 66.515625 92.507812 C 66.515625 92.257812 66.316406 92.058594 66.070312 92.058594 C 65.824219 92.058594 65.621094 92.257812 65.621094 92.507812 C 65.621094 92.753906 65.824219 92.953125 66.070312 92.953125 C 66.316406 92.953125 66.515625 92.753906 66.515625 92.507812 Z M 66.515625 92.507812 "/>
<path fill-rule="nonzero" fill="rgb(0%, 0%, 0%)" fill-opacity="1" d="M 77.820312 100.984375 C 77.820312 100.738281 77.621094 100.539062 77.375 100.539062 C 77.128906 100.539062 76.925781 100.738281 76.925781 100.984375 C 76.925781 101.230469 77.128906 101.433594 77.375 101.433594 C 77.621094 101.433594 77.820312 101.230469 77.820312 100.984375 Z M 77.820312 100.984375 "/>
<path fill-rule="nonzero" fill="rgb(0%, 0%, 0%)" fill-opacity="1" d="M 89.128906 110.878906 C 89.128906 110.632812 88.925781 110.429688 88.679688 110.429688 C 88.433594 110.429688 88.234375 110.632812 88.234375 110.878906 C 88.234375 111.125 88.433594 111.324219 88.679688 111.324219 C 88.925781 111.324219 89.128906 111.125 89.128906 110.878906 Z M 89.128906 110.878906 "/>
<path fill-rule="nonzero" fill="rgb(0%, 0%, 0%)" fill-opacity="1" d="M 99.019531 119.355469 C 99.019531 119.109375 98.820312 118.910156 98.574219 118.910156 C 98.324219 118.910156 98.125 119.109375 98.125 119.355469 C 98.125 119.605469 98.324219 119.804688 98.574219 119.804688 C 98.820312 119.804688 99.019531 119.605469 99.019531 119.355469 Z M 99.019531 119.355469 "/>
<path fill-rule="nonzero" fill="rgb(0%, 0%, 0%)" fill-opacity="1" d="M 110.324219 130.664062 C 110.324219 130.414062 110.125 130.214844 109.878906 130.214844 C 109.632812 130.214844 109.429688 130.414062 109.429688 130.664062 C 109.429688 130.910156 109.632812 131.109375 109.878906 131.109375 C 110.125 131.109375 110.324219 130.910156 110.324219 130.664062 Z M 110.324219 130.664062 "/>
<path fill-rule="nonzero" fill="rgb(0%, 0%, 0%)" fill-opacity="1" d="M 121.628906 139.140625 C 121.628906 138.894531 121.429688 138.695312 121.183594 138.695312 C 120.9375 138.695312 120.738281 138.894531 120.738281 139.140625 C 120.738281 139.386719 120.9375 139.589844 121.183594 139.589844 C 121.429688 139.589844 121.628906 139.386719 121.628906 139.140625 Z M 121.628906 139.140625 "/>
<path fill-rule="nonzero" fill="rgb(0%, 0%, 0%)" fill-opacity="1" d="M 141.414062 140.554688 C 141.414062 140.308594 141.214844 140.109375 140.96875 140.109375 C 140.722656 140.109375 140.519531 140.308594 140.519531 140.554688 C 140.519531 140.800781 140.722656 141 140.96875 141 C 141.214844 141 141.414062 140.800781 141.414062 140.554688 Z M 141.414062 140.554688 "/>
<path fill-rule="nonzero" fill="rgb(0%, 0%, 0%)" fill-opacity="1" d="M 161.199219 140.554688 C 161.199219 140.308594 161 140.109375 160.753906 140.109375 C 160.507812 140.109375 160.304688 140.308594 160.304688 140.554688 C 160.304688 140.800781 160.507812 141 160.753906 141 C 161 141 161.199219 140.800781 161.199219 140.554688 Z M 161.199219 140.554688 "/>
<path fill-rule="nonzero" fill="rgb(0%, 0%, 0%)" fill-opacity="1" d="M 180.984375 140.554688 C 180.984375 140.308594 180.785156 140.109375 180.539062 140.109375 C 180.289062 140.109375 180.089844 140.308594 180.089844 140.554688 C 180.089844 140.800781 180.289062 141 180.539062 141 C 180.785156 141 180.984375 140.800781 180.984375 140.554688 Z M 180.984375 140.554688 "/>
<path fill-rule="nonzero" fill="rgb(0%, 0%, 0%)" fill-opacity="1" d="M 200.769531 140.554688 C 200.769531 140.308594 200.570312 140.109375 200.324219 140.109375 C 200.074219 140.109375 199.875 140.308594 199.875 140.554688 C 199.875 140.800781 200.074219 141 200.324219 141 C 200.570312 141 200.769531 140.800781 200.769531 140.554688 Z M 200.769531 140.554688 "/>
<path fill-rule="nonzero" fill="rgb(0%, 0%, 0%)" fill-opacity="1" d="M 217.726562 140.554688 C 217.726562 140.308594 217.527344 140.109375 217.28125 140.109375 C 217.035156 140.109375 216.832031 140.308594 216.832031 140.554688 C 216.832031 140.800781 217.035156 141 217.28125 141 C 217.527344 141 217.726562 140.800781 217.726562 140.554688 Z M 217.726562 140.554688 "/>
<g fill="rgb(0%, 0%, 0%)" fill-opacity="1">
<use xlink:href="#glyph-0-0" x="25.205304" y="74.129684"/>
</g>
<g fill="rgb(0%, 0%, 0%)" fill-opacity="1">
<use xlink:href="#glyph-0-3" x="32.768747" y="74.129684"/>
</g>
<g fill="rgb(0%, 0%, 0%)" fill-opacity="1">
<use xlink:href="#glyph-0-4" x="41.691106" y="74.129684"/>
</g>
<path fill="none" stroke-width="0.54796" stroke-linecap="round" stroke-linejoin="round" stroke="rgb(0%, 0%, 0%)" stroke-opacity="1" stroke-miterlimit="10" d="M 145.98246 23.246101 L 145.98246 38.266453 " transform="matrix(0.997085, 0, 0, -0.997085, -14.482655, 174.4713)"/>
<g fill="rgb(0%, 0%, 0%)" fill-opacity="1">
<use xlink:href="#glyph-0-0" x="120.287298" y="161.808325"/>
</g>
<g fill="rgb(0%, 0%, 0%)" fill-opacity="1">
<use xlink:href="#glyph-0-3" x="127.850742" y="161.808325"/>
</g>
<g fill="rgb(0%, 0%, 0%)" fill-opacity="1">
<use xlink:href="#glyph-0-5" x="136.773101" y="161.808325"/>
</g>
<path fill="none" stroke-width="0.64757" stroke-linecap="round" stroke-linejoin="round" stroke="rgb(0%, 0%, 0%)" stroke-opacity="1" stroke-miterlimit="10" d="M 72.283228 143.150348 L 87.60524 148.09445 " transform="matrix(0.997085, 0, 0, -0.997085, -14.482655, 174.4713)"/>
<path fill-rule="nonzero" fill="rgb(0%, 0%, 0%)" fill-opacity="1" d="M 75.113281 26.085938 L 70.941406 25.449219 L 72.867188 26.808594 L 72.101562 29.042969 "/>
<path fill="none" stroke-width="0.64757" stroke-linecap="round" stroke-linejoin="round" stroke="rgb(0%, 0%, 0%)" stroke-opacity="1" stroke-miterlimit="10" d="M 92.126233 143.150348 L 107.448245 148.09445 " transform="matrix(0.997085, 0, 0, -0.997085, -14.482655, 174.4713)"/>
<path fill-rule="nonzero" fill="rgb(0%, 0%, 0%)" fill-opacity="1" d="M 94.898438 26.085938 L 90.726562 25.449219 L 92.652344 26.808594 L 91.886719 29.042969 "/>
<path fill="none" stroke-width="0.64757" stroke-linecap="round" stroke-linejoin="round" stroke="rgb(0%, 0%, 0%)" stroke-opacity="1" stroke-miterlimit="10" d="M 111.969238 143.150348 L 127.29125 148.09445 " transform="matrix(0.997085, 0, 0, -0.997085, -14.482655, 174.4713)"/>
<path fill-rule="nonzero" fill="rgb(0%, 0%, 0%)" fill-opacity="1" d="M 114.683594 26.085938 L 110.511719 25.449219 L 112.4375 26.808594 L 111.667969 29.042969 "/>
<path fill="none" stroke-width="0.64757" stroke-linecap="round" stroke-linejoin="round" stroke="rgb(0%, 0%, 0%)" stroke-opacity="1" stroke-miterlimit="10" d="M 131.812243 143.150348 L 147.134255 148.09445 " transform="matrix(0.997085, 0, 0, -0.997085, -14.482655, 174.4713)"/>
<path fill-rule="nonzero" fill="rgb(0%, 0%, 0%)" fill-opacity="1" d="M 134.46875 26.085938 L 130.296875 25.449219 L 132.222656 26.808594 L 131.453125 29.042969 "/>
<g fill="rgb(0%, 0%, 0%)" fill-opacity="1">
<use xlink:href="#glyph-0-6" x="126.107282" y="20.819554"/>
</g>
<g fill="rgb(0%, 0%, 0%)" fill-opacity="1">
<use xlink:href="#glyph-1-0" x="130.344892" y="17.600965"/>
</g>
</svg>
